<svg width="16" height="16" viewBox="0 0 16 16" fill="none" xmlns="http://www.w3.org/2000/svg">
<path fill-rule="evenodd" clip-rule="evenodd" d="M14.851 2.45116C14.9366 2.36575 15.0044 2.26433 15.0507 2.1527C15.0971 2.04106 15.1209 1.92139 15.121 1.80053C15.1211 1.67967 15.0974 1.55997 15.0512 1.44828C15.005 1.33658 14.9373 1.23508 14.8518 1.14956C14.7664 1.06405 14.665 0.996191 14.5534 0.94987C14.4417 0.903548 14.3221 0.879668 14.2012 0.879594C14.0803 0.87952 13.9606 0.903252 13.849 0.949437C13.7373 0.995621 13.6358 1.06335 13.5502 1.14876L7.99984 6.69916L2.45104 1.14876C2.27833 0.976055 2.04409 0.879028 1.79984 0.879028C1.55559 0.879028 1.32135 0.976055 1.14864 1.14876C0.975933 1.32147 0.878906 1.55572 0.878906 1.79996C0.878906 2.04421 0.975933 2.27846 1.14864 2.45116L6.69904 7.99996L1.14864 13.5488C1.06313 13.6343 0.99529 13.7358 0.949008 13.8475C0.902727 13.9593 0.878906 14.079 0.878906 14.2C0.878906 14.3209 0.902727 14.4407 0.949008 14.5524C0.99529 14.6641 1.06313 14.7656 1.14864 14.8512C1.32135 15.0239 1.55559 15.1209 1.79984 15.1209C1.92078 15.1209 2.04054 15.0971 2.15227 15.0508C2.264 15.0045 2.36553 14.9367 2.45104 14.8512L7.99984 9.30076L13.5502 14.8512C13.723 15.0237 13.9571 15.1205 14.2012 15.1203C14.4453 15.1202 14.6793 15.0231 14.8518 14.8504C15.0243 14.6777 15.1212 14.4435 15.121 14.1994C15.1209 13.9553 15.0238 13.7213 14.851 13.5488L9.30064 7.99996L14.851 2.45116Z" fill="#2E3965"/>
</svg>
