<svg width="20" height="20" viewBox="0 0 20 20" fill="none" xmlns="http://www.w3.org/2000/svg">
<path d="M9.99984 19.0083C9.42484 19.0083 8.88317 18.7167 8.49984 18.2083L7.24984 16.5417C7.22484 16.5083 7.12484 16.4667 7.08317 16.4583H6.6665C3.1915 16.4583 1.0415 15.5167 1.0415 10.8333V6.66667C1.0415 2.98334 2.98317 1.04167 6.6665 1.04167H13.3332C17.0165 1.04167 18.9582 2.98334 18.9582 6.66667V10.8333C18.9582 14.5167 17.0165 16.4583 13.3332 16.4583H12.9165C12.8498 16.4583 12.7915 16.4917 12.7498 16.5417L11.4998 18.2083C11.1165 18.7167 10.5748 19.0083 9.99984 19.0083ZM6.6665 2.29167C3.68317 2.29167 2.2915 3.68334 2.2915 6.66667V10.8333C2.2915 14.6 3.58317 15.2083 6.6665 15.2083H7.08317C7.50817 15.2083 7.9915 15.45 8.24984 15.7917L9.49984 17.4583C9.7915 17.8417 10.2082 17.8417 10.4998 17.4583L11.7498 15.7917C12.0248 15.425 12.4582 15.2083 12.9165 15.2083H13.3332C16.3165 15.2083 17.7082 13.8167 17.7082 10.8333V6.66667C17.7082 3.68334 16.3165 2.29167 13.3332 2.29167H6.6665Z" fill="white"/>
<path d="M9.99984 10C9.53317 10 9.1665 9.62501 9.1665 9.16668C9.1665 8.70834 9.5415 8.33334 9.99984 8.33334C10.4582 8.33334 10.8332 8.70834 10.8332 9.16668C10.8332 9.62501 10.4665 10 9.99984 10Z" fill="white"/>
<path d="M13.3333 10C12.8667 10 12.5 9.62501 12.5 9.16668C12.5 8.70834 12.875 8.33334 13.3333 8.33334C13.7917 8.33334 14.1667 8.70834 14.1667 9.16668C14.1667 9.62501 13.8 10 13.3333 10Z" fill="white"/>
<path d="M6.66683 10C6.20016 10 5.8335 9.62501 5.8335 9.16668C5.8335 8.70834 6.2085 8.33334 6.66683 8.33334C7.12516 8.33334 7.50016 8.70834 7.50016 9.16668C7.50016 9.62501 7.1335 10 6.66683 10Z" fill="white"/>
</svg>
