<svg width="20" height="20" viewBox="0 0 20 20" fill="none" xmlns="http://www.w3.org/2000/svg">
<path d="M16.1835 9.79166H13.3335C12.9918 9.79166 12.7085 9.50832 12.7085 9.16666V3.34166C12.7085 2.72499 12.9502 2.14999 13.3835 1.71666C13.8168 1.28332 14.3918 1.04166 15.0085 1.04166H15.0168C16.0585 1.04999 17.0418 1.45832 17.7918 2.19999C18.5418 2.95832 18.9502 3.95832 18.9502 4.99999V7.01665C18.9585 8.67499 17.8418 9.79166 16.1835 9.79166ZM13.9585 8.54166H16.1835C17.1502 8.54166 17.7085 7.98332 17.7085 7.01665V4.99999C17.7085 4.28332 17.4252 3.59999 16.9168 3.08332C16.4085 2.58332 15.7252 2.29999 15.0168 2.29166C15.0168 2.29166 15.0168 2.29166 15.0085 2.29166C14.7335 2.29166 14.4668 2.39999 14.2668 2.59999C14.0668 2.79999 13.9585 3.05832 13.9585 3.34166V8.54166Z" fill="white"/>
<path d="M7.49984 19.4417C7.10817 19.4417 6.7415 19.2917 6.4665 19.0083L5.08317 17.6167C5.00817 17.5417 4.8915 17.5333 4.80817 17.6L3.37484 18.6667C2.93317 19 2.34984 19.0583 1.84984 18.8083C1.34984 18.5583 1.0415 18.0583 1.0415 17.5V4.99999C1.0415 2.48332 2.48317 1.04166 4.99984 1.04166H14.9998C15.3415 1.04166 15.6248 1.32499 15.6248 1.66666C15.6248 2.00832 15.3415 2.29166 14.9998 2.29166C14.4248 2.29166 13.9582 2.75832 13.9582 3.33332V17.5C13.9582 18.0583 13.6498 18.5583 13.1498 18.8083C12.6498 19.0583 12.0665 19.0083 11.6248 18.675L10.1998 17.6083C10.1165 17.5417 9.99984 17.5583 9.93317 17.625L8.53317 19.025C8.25817 19.2917 7.8915 19.4417 7.49984 19.4417ZM4.92484 16.3083C5.30817 16.3083 5.68317 16.45 5.9665 16.7417L7.34984 18.1333C7.39984 18.1833 7.4665 18.1917 7.49984 18.1917C7.53317 18.1917 7.59984 18.1833 7.64984 18.1333L9.04984 16.7333C9.5665 16.2167 10.3832 16.1667 10.9582 16.6083L12.3748 17.6667C12.4665 17.7333 12.5498 17.7083 12.5915 17.6833C12.6332 17.6583 12.7082 17.6083 12.7082 17.5V3.33332C12.7082 2.95832 12.7998 2.59999 12.9582 2.29166H4.99984C3.14984 2.29166 2.2915 3.14999 2.2915 4.99999V17.5C2.2915 17.6167 2.3665 17.6667 2.40817 17.6917C2.45817 17.7167 2.5415 17.7333 2.62484 17.6667L4.04984 16.6C4.30817 16.4083 4.6165 16.3083 4.92484 16.3083Z" fill="white"/>
<path d="M10 11.4667H7.5C7.15833 11.4667 6.875 11.1833 6.875 10.8417C6.875 10.5 7.15833 10.2167 7.5 10.2167H10C10.3417 10.2167 10.625 10.5 10.625 10.8417C10.625 11.1833 10.3417 11.4667 10 11.4667Z" fill="white"/>
<path d="M10 8.13333H7.5C7.15833 8.13333 6.875 7.85 6.875 7.50833C6.875 7.16666 7.15833 6.88333 7.5 6.88333H10C10.3417 6.88333 10.625 7.16666 10.625 7.50833C10.625 7.85 10.3417 8.13333 10 8.13333Z" fill="white"/>
<path d="M4.97493 8.34168C4.5166 8.34168 4.1416 7.96668 4.1416 7.50835C4.1416 7.05002 4.5166 6.67502 4.97493 6.67502C5.43327 6.67502 5.80827 7.05002 5.80827 7.50835C5.80827 7.96668 5.43327 8.34168 4.97493 8.34168Z" fill="white"/>
<path d="M4.97493 11.675C4.5166 11.675 4.1416 11.3 4.1416 10.8417C4.1416 10.3833 4.5166 10.0083 4.97493 10.0083C5.43327 10.0083 5.80827 10.3833 5.80827 10.8417C5.80827 11.3 5.43327 11.675 4.97493 11.675Z" fill="white"/>
</svg>
