<svg width="21" height="21" viewBox="0 0 21 21" fill="none" xmlns="http://www.w3.org/2000/svg">
<path d="M13 19.4583H8.00002C3.47502 19.4583 1.54169 17.525 1.54169 13V8C1.54169 3.475 3.47502 1.54167 8.00002 1.54167H12.1667C12.5084 1.54167 12.7917 1.825 12.7917 2.16667C12.7917 2.50833 12.5084 2.79167 12.1667 2.79167H8.00002C4.15835 2.79167 2.79169 4.15833 2.79169 8V13C2.79169 16.8417 4.15835 18.2083 8.00002 18.2083H13C16.8417 18.2083 18.2084 16.8417 18.2084 13V8.83333C18.2084 8.49167 18.4917 8.20833 18.8334 8.20833C19.175 8.20833 19.4584 8.49167 19.4584 8.83333V13C19.4584 17.525 17.525 19.4583 13 19.4583Z" fill="#373737"/>
<path d="M18.8334 9.45833H15.5C12.65 9.45833 11.5417 8.35 11.5417 5.5V2.16667C11.5417 1.91667 11.6917 1.68333 11.925 1.59167C12.1584 1.49167 12.425 1.55 12.6084 1.725L19.275 8.39167C19.45 8.56667 19.5084 8.84167 19.4084 9.075C19.3084 9.30833 19.0834 9.45833 18.8334 9.45833ZM12.7917 3.675V5.5C12.7917 7.65 13.35 8.20833 15.5 8.20833H17.325L12.7917 3.675Z" fill="#373737"/>
<path d="M8.34999 16.2917C7.62499 16.2917 5.94166 15.4083 5.42499 13.7917C5.06666 12.675 5.48333 11.2167 6.77499 10.8C7.31666 10.625 7.89166 10.7 8.34999 10.9833C8.79999 10.7 9.38333 10.625 9.93333 10.8C11.225 11.2167 11.6417 12.675 11.2833 13.7917C10.7583 15.4417 8.99166 16.2917 8.34999 16.2917ZM6.60833 13.4167C6.95833 14.5083 8.14166 15.025 8.35833 15.0417C8.59166 15.0167 9.75833 14.4417 10.0833 13.4167C10.2583 12.8667 10.0833 12.1667 9.54166 11.9917C9.31666 11.9167 9.00833 11.9583 8.86666 12.175C8.74999 12.35 8.56666 12.45 8.35833 12.4583C8.13333 12.4583 7.95833 12.3667 7.84166 12.2C7.66666 11.9583 7.36666 11.925 7.14999 12C6.61666 12.1667 6.43333 12.8667 6.60833 13.4167Z" fill="#373737"/>
</svg>
