<svg width="21" height="21" viewBox="0 0 21 21" fill="none" xmlns="http://www.w3.org/2000/svg">
<path d="M7.16669 19.0999C6.93335 19.0999 6.69167 19.0416 6.47501 18.9249C6.00001 18.6749 5.70835 18.1749 5.70835 17.6416V16.4583C3.19169 16.2 1.54169 14.3499 1.54169 11.6999V6.69995C1.54169 3.83328 3.46669 1.90828 6.33335 1.90828H14.6667C17.5334 1.90828 19.4584 3.83328 19.4584 6.69995V11.6999C19.4584 14.5666 17.5334 16.4916 14.6667 16.4916H11.525L7.975 18.8583C7.73333 19.0166 7.45002 19.0999 7.16669 19.0999ZM6.33335 3.14994C4.18335 3.14994 2.79169 4.54161 2.79169 6.69161V11.6917C2.79169 13.8417 4.18335 15.2333 6.33335 15.2333C6.67502 15.2333 6.95835 15.5167 6.95835 15.8583V17.6333C6.95835 17.7417 7.02502 17.7916 7.06669 17.8166C7.10836 17.8416 7.1917 17.8666 7.28337 17.8083L10.9917 15.3417C11.0917 15.275 11.2167 15.2333 11.3417 15.2333H14.675C16.825 15.2333 18.2167 13.8417 18.2167 11.6917V6.69161C18.2167 4.54161 16.825 3.14994 14.675 3.14994H6.33335Z" fill="#373737"/>
<path d="M10.4998 10.5917C10.1582 10.5917 9.87483 10.3083 9.87483 9.96666V9.79169C9.87483 8.82502 10.5831 8.35001 10.8498 8.16668C11.1581 7.95835 11.2581 7.81668 11.2581 7.60002C11.2581 7.18335 10.9165 6.84166 10.4998 6.84166C10.0832 6.84166 9.74152 7.18335 9.74152 7.60002C9.74152 7.94168 9.45818 8.22502 9.11652 8.22502C8.77485 8.22502 8.49152 7.94168 8.49152 7.60002C8.49152 6.49168 9.39149 5.59166 10.4998 5.59166C11.6082 5.59166 12.5081 6.49168 12.5081 7.60002C12.5081 8.55002 11.8082 9.025 11.5498 9.2C11.2248 9.41667 11.1248 9.55836 11.1248 9.79169V9.96666C11.1248 10.3167 10.8415 10.5917 10.4998 10.5917Z" fill="#373737"/>
<path d="M10.5 12.6666C10.15 12.6666 9.875 12.3833 9.875 12.0416C9.875 11.7 10.1583 11.4166 10.5 11.4166C10.8417 11.4166 11.125 11.7 11.125 12.0416C11.125 12.3833 10.85 12.6666 10.5 12.6666Z" fill="#373737"/>
</svg>
