<svg width="1512" height="982" viewBox="0 0 1512 982" fill="none" xmlns="http://www.w3.org/2000/svg">
<line x1="411" y1="710.5" x2="1101" y2="710.5" stroke="#BBCBF4"/>
<path d="M-116 49C-116 21.3858 -93.6142 -1 -66 -1H299V514C299 541.614 276.614 564 249 564H-66C-93.6142 564 -116 541.614 -116 514V49Z" stroke="#BBCBF4" stroke-linecap="round" stroke-dasharray="6 6"/>
<path d="M-116 540C-116 512.11 -93.3904 489.5 -65.5 489.5H361C388.89 489.5 411.5 512.11 411.5 540H410.5C410.5 512.662 388.338 490.5 361 490.5H-66C-93.6142 490.5 -116 512.662 -116 540ZM411 982H-116H411ZM-116 982V490V982ZM361 489.5C388.89 489.5 411.5 512.11 411.5 540V982H410.5V540C410.5 512.662 388.338 490.5 361 490.5V489.5Z" fill="#BBCBF4"/>
<path d="M1101.5 979.014C1101.5 978.738 1101.28 978.514 1101 978.514C1100.76 978.514 1100.56 978.684 1100.51 978.912L1100.5 979.014V982H1101.5V979.014ZM1101.5 973.04V967.067C1101.5 966.791 1101.28 966.567 1101 966.567C1100.72 966.567 1100.5 966.791 1100.5 967.067V973.04C1100.5 973.316 1100.72 973.54 1101 973.54C1101.28 973.54 1101.5 973.316 1101.5 973.04ZM1101.5 961.095V955.121C1101.5 954.845 1101.28 954.621 1101 954.621C1100.72 954.621 1100.5 954.845 1100.5 955.121V961.095C1100.5 961.371 1100.72 961.595 1101 961.595C1101.28 961.595 1101.5 961.371 1101.5 961.095ZM1101.5 949.148V943.176C1101.5 942.9 1101.28 942.676 1101 942.676C1100.72 942.676 1100.5 942.9 1100.5 943.176V949.148C1100.5 949.425 1100.72 949.648 1101 949.648C1101.28 949.648 1101.5 949.425 1101.5 949.148ZM1101.5 937.202V931.229C1101.5 930.953 1101.28 930.729 1101 930.729C1100.72 930.729 1100.5 930.953 1100.5 931.229V937.202C1100.5 937.478 1100.72 937.702 1101 937.702C1101.28 937.702 1101.5 937.478 1101.5 937.202ZM1101.5 925.257V919.283C1101.5 919.007 1101.28 918.783 1101 918.783C1100.72 918.783 1100.5 919.007 1100.5 919.283V925.257C1100.5 925.533 1100.72 925.757 1101 925.757C1101.28 925.757 1101.5 925.533 1101.5 925.257ZM1101.5 913.311V907.338C1101.5 907.062 1101.28 906.838 1101 906.838C1100.72 906.838 1100.5 907.062 1100.5 907.338V913.311C1100.5 913.587 1100.72 913.811 1101 913.811C1101.28 913.811 1101.5 913.587 1101.5 913.311ZM1101.5 901.365V895.392C1101.5 895.116 1101.28 894.892 1101 894.892C1100.72 894.892 1100.5 895.116 1100.5 895.392V901.365C1100.5 901.641 1100.72 901.865 1101 901.865C1101.28 901.865 1101.5 901.641 1101.5 901.365ZM1101.5 889.419V883.446C1101.5 883.17 1101.28 882.946 1101 882.946C1100.72 882.946 1100.5 883.17 1100.5 883.446V889.419C1100.5 889.695 1100.72 889.919 1101 889.919C1101.28 889.919 1101.5 889.695 1101.5 889.419ZM1101.5 877.473V871.5C1101.5 871.224 1101.28 871 1101 871C1100.72 871 1100.5 871.224 1100.5 871.5V877.473C1100.5 877.749 1100.72 877.973 1101 877.973C1101.28 877.973 1101.5 877.749 1101.5 877.473ZM1101.5 865.527V859.554C1101.5 859.278 1101.28 859.054 1101 859.054C1100.72 859.054 1100.5 859.278 1100.5 859.554V865.527C1100.5 865.803 1100.72 866.027 1101 866.027C1101.28 866.027 1101.5 865.803 1101.5 865.527ZM1101.5 853.581V847.608C1101.5 847.332 1101.28 847.108 1101 847.108C1100.72 847.108 1100.5 847.332 1100.5 847.608V853.581C1100.5 853.857 1100.72 854.081 1101 854.081C1101.28 854.081 1101.5 853.857 1101.5 853.581ZM1101.5 841.635V835.662C1101.5 835.386 1101.28 835.162 1101 835.162C1100.72 835.162 1100.5 835.386 1100.5 835.662V841.635C1100.5 841.911 1100.72 842.135 1101 842.135C1101.28 842.135 1101.5 841.911 1101.5 841.635ZM1101.5 829.689V823.716C1101.5 823.44 1101.28 823.216 1101 823.216C1100.72 823.216 1100.5 823.44 1100.5 823.716V829.689C1100.5 829.965 1100.72 830.189 1101 830.189C1101.28 830.189 1101.5 829.965 1101.5 829.689ZM1101.5 817.743V811.771C1101.5 811.494 1101.28 811.271 1101 811.271C1100.72 811.271 1100.5 811.494 1100.5 811.771V817.743C1100.5 818.019 1100.72 818.243 1101 818.243C1101.28 818.243 1101.5 818.019 1101.5 817.743ZM1101.5 805.798V799.824C1101.5 799.548 1101.28 799.324 1101 799.324C1100.72 799.324 1100.5 799.548 1100.5 799.824V805.798C1100.5 806.074 1100.72 806.298 1101 806.298C1101.28 806.298 1101.5 806.074 1101.5 805.798ZM1101.5 793.852V787.879C1101.5 787.603 1101.28 787.379 1101 787.379C1100.72 787.379 1100.5 787.603 1100.5 787.879V793.852C1100.5 794.128 1100.72 794.352 1101 794.352C1101.28 794.352 1101.5 794.128 1101.5 793.852ZM1101.5 781.905V775.933C1101.5 775.656 1101.28 775.433 1101 775.433C1100.72 775.433 1100.5 775.656 1100.5 775.933V781.905C1100.5 782.181 1100.72 782.405 1101 782.405C1101.28 782.405 1101.5 782.181 1101.5 781.905ZM1101.5 769.96V763.986C1101.5 763.71 1101.28 763.486 1101 763.486C1100.72 763.486 1100.5 763.71 1100.5 763.986V769.96C1100.5 770.236 1100.72 770.46 1101 770.46C1101.28 770.46 1101.5 770.236 1101.5 769.96ZM1101.5 758.014V752.041C1101.5 751.765 1101.28 751.541 1101 751.541C1100.72 751.541 1100.5 751.765 1100.5 752.041V758.014C1100.5 758.29 1100.72 758.514 1101 758.514C1101.28 758.514 1101.5 758.29 1101.5 758.014ZM1101.5 746.067V740.095C1101.5 739.819 1101.28 739.595 1101 739.595C1100.72 739.595 1100.5 739.819 1100.5 740.095V746.067C1100.5 746.344 1100.72 746.567 1101 746.567C1101.28 746.567 1101.5 746.344 1101.5 746.067ZM1101.5 734.122V728.148C1101.5 727.872 1101.28 727.648 1101 727.648C1100.72 727.648 1100.5 727.872 1100.5 728.148V734.122C1100.5 734.398 1100.72 734.622 1101 734.622C1101.28 734.622 1101.5 734.398 1101.5 734.122ZM1101.5 722.176V716.203C1101.5 715.927 1101.28 715.703 1101 715.703C1100.72 715.703 1100.5 715.927 1100.5 716.203V722.176C1100.5 722.452 1100.72 722.676 1101 722.676C1101.28 722.676 1101.5 722.452 1101.5 722.176ZM1101.5 710.229V704.257C1101.5 703.981 1101.28 703.757 1101 703.757C1100.72 703.757 1100.5 703.981 1100.5 704.257V710.229C1100.5 710.506 1100.72 710.729 1101 710.729C1101.28 710.729 1101.5 710.506 1101.5 710.229ZM1101.5 698.284V692.311C1101.5 692.035 1101.28 691.811 1101 691.811C1100.72 691.811 1100.5 692.035 1100.5 692.311V698.284C1100.5 698.56 1100.72 698.784 1101 698.784C1101.28 698.784 1101.5 698.56 1101.5 698.284ZM1101.5 686.338V680.365C1101.5 680.089 1101.28 679.865 1101 679.865C1100.72 679.865 1100.5 680.089 1100.5 680.365V686.338C1100.5 686.614 1100.72 686.838 1101 686.838C1101.28 686.838 1101.5 686.614 1101.5 686.338ZM1101.5 674.392V668.419C1101.5 668.143 1101.28 667.919 1101 667.919C1100.72 667.919 1100.5 668.143 1100.5 668.419V674.392C1100.5 674.668 1100.72 674.892 1101 674.892C1101.28 674.892 1101.5 674.668 1101.5 674.392ZM1101.5 662.446V656.473C1101.5 656.197 1101.28 655.973 1101 655.973C1100.72 655.973 1100.5 656.197 1100.5 656.473V662.446C1100.5 662.722 1100.72 662.946 1101 662.946C1101.28 662.946 1101.5 662.722 1101.5 662.446ZM1101.5 650.5V644.527C1101.5 644.251 1101.28 644.027 1101 644.027C1100.72 644.027 1100.5 644.251 1100.5 644.527V650.5C1100.5 650.776 1100.72 651 1101 651C1101.28 651 1101.5 650.776 1101.5 650.5ZM1101.5 638.554V632.581C1101.5 632.305 1101.28 632.081 1101 632.081C1100.72 632.081 1100.5 632.305 1100.5 632.581V638.554C1100.5 638.83 1100.72 639.054 1101 639.054C1101.28 639.054 1101.5 638.83 1101.5 638.554ZM1101.5 626.608V620.635C1101.5 620.359 1101.28 620.135 1101 620.135C1100.72 620.135 1100.5 620.359 1100.5 620.635V626.608C1100.5 626.884 1100.72 627.108 1101 627.108C1101.28 627.108 1101.5 626.884 1101.5 626.608ZM1101.5 614.662V608.689C1101.5 608.413 1101.28 608.189 1101 608.189C1100.72 608.189 1100.5 608.413 1100.5 608.689V614.662C1100.5 614.938 1100.72 615.162 1101 615.162C1101.28 615.162 1101.5 614.938 1101.5 614.662ZM1101.5 602.716V596.743C1101.5 596.467 1101.28 596.243 1101 596.243C1100.72 596.243 1100.5 596.467 1100.5 596.743V602.716C1100.5 602.992 1100.72 603.216 1101 603.216C1101.28 603.216 1101.5 602.992 1101.5 602.716ZM1101.5 590.771V584.797C1101.5 584.521 1101.28 584.297 1101 584.297C1100.72 584.297 1100.5 584.521 1100.5 584.797V590.771C1100.5 591.047 1100.72 591.271 1101 591.271C1101.28 591.271 1101.5 591.047 1101.5 590.771ZM1101.5 578.824V572.852C1101.5 572.575 1101.28 572.352 1101 572.352C1100.72 572.352 1100.5 572.575 1100.5 572.852V578.824C1100.5 579.1 1100.72 579.324 1101 579.324C1101.28 579.324 1101.5 579.1 1101.5 578.824ZM1101.5 566.878V560.905C1101.5 560.629 1101.28 560.405 1101 560.405C1100.72 560.405 1100.5 560.629 1100.5 560.905V566.878C1100.5 567.154 1100.72 567.378 1101 567.378C1101.28 567.378 1101.5 567.154 1101.5 566.878ZM1101.5 554.933V548.959C1101.5 548.683 1101.28 548.459 1101 548.459C1100.72 548.459 1100.5 548.683 1100.5 548.959V554.933C1100.5 555.209 1100.72 555.433 1101 555.433C1101.28 555.433 1101.5 555.209 1101.5 554.933ZM1101.5 542.986V540C1101.5 539.556 1101.51 539.113 1101.52 538.672C1101.52 538.581 1101.52 538.49 1101.53 538.398C1101.53 538.265 1101.54 538.131 1101.54 537.998C1101.55 537.878 1101.55 537.759 1101.56 537.64C1101.56 537.554 1101.56 537.468 1101.57 537.383C1101.57 537.329 1101.57 537.276 1101.58 537.223L1101.08 537.195L1100.58 537.167C1100.58 537.196 1100.58 537.225 1100.57 537.254C1100.53 538.163 1100.5 539.079 1100.5 540V542.986C1100.5 543.262 1100.72 543.486 1101 543.486C1101.28 543.486 1101.5 543.262 1101.5 542.986ZM1627.92 537.195H1627.92C1627.97 538.124 1628 539.059 1628 540C1628 539.128 1627.98 538.262 1627.93 537.401L1627.92 537.195ZM1101.1 536.695C1100.83 536.681 1100.6 536.887 1100.58 537.158C1100.58 537.161 1100.58 537.164 1100.58 537.167L1101.58 537.223C1101.59 536.947 1101.38 536.711 1101.1 536.695ZM1627.89 536.695C1627.9 536.861 1627.91 537.028 1627.92 537.194H1627.92C1627.91 537.028 1627.9 536.861 1627.89 536.695H1627.89ZM1103.08 525.672C1102.82 525.597 1102.54 525.747 1102.46 526.008C1102.46 526.03 1102.45 526.052 1102.45 526.074C1101.96 527.761 1101.57 529.484 1101.26 531.237C1101.24 531.34 1101.22 531.442 1101.21 531.545C1101.16 531.814 1101.35 532.068 1101.62 532.113C1101.89 532.159 1102.15 531.976 1102.19 531.704C1102.2 531.648 1102.21 531.592 1102.22 531.536C1102.25 531.377 1102.28 531.219 1102.31 531.061C1102.32 530.985 1102.33 530.91 1102.35 530.834C1102.37 530.703 1102.4 530.571 1102.42 530.44C1102.44 530.356 1102.46 530.271 1102.47 530.187C1102.5 530.074 1102.52 529.962 1102.54 529.85C1102.57 529.742 1102.59 529.635 1102.61 529.527C1102.63 529.416 1102.66 529.305 1102.68 529.193C1102.71 529.087 1102.73 528.981 1102.76 528.875C1102.85 528.458 1102.95 528.042 1103.06 527.629C1103.08 527.534 1103.11 527.439 1103.13 527.345C1103.22 527.022 1103.31 526.701 1103.4 526.381L1103.42 526.291L1103.44 526.191C1103.46 525.959 1103.31 525.739 1103.08 525.672ZM1627.29 531.623C1627.31 531.787 1627.34 531.95 1627.37 532.114C1627.37 532.114 1627.38 532.114 1627.38 532.113L1627.39 532.112C1627.36 531.948 1627.34 531.783 1627.31 531.619L1627.29 531.623ZM1625.92 525.672C1625.91 525.676 1625.89 525.683 1625.88 525.688C1626.47 527.619 1626.94 529.6 1627.29 531.622L1627.3 531.62L1627.31 531.618C1626.97 529.591 1626.51 527.605 1625.94 525.668C1625.93 525.669 1625.93 525.67 1625.92 525.672ZM1107.47 515.373C1107.24 515.245 1106.95 515.32 1106.81 515.539C1106.76 515.629 1106.71 515.719 1106.66 515.81C1106.42 516.249 1106.19 516.692 1105.96 517.139C1105.63 517.786 1105.32 518.441 1105.01 519.104C1104.8 519.576 1104.59 520.053 1104.39 520.533C1104.37 520.581 1104.35 520.629 1104.33 520.678C1104.23 520.931 1104.35 521.218 1104.6 521.322C1104.83 521.415 1105.08 521.334 1105.21 521.142L1105.26 521.052L1105.35 520.821C1105.38 520.762 1105.4 520.702 1105.43 520.643C1105.57 520.313 1105.71 519.986 1105.86 519.66C1105.87 519.629 1105.89 519.598 1105.9 519.566C1106.2 518.907 1106.52 518.255 1106.84 517.611C1106.88 517.532 1106.92 517.453 1106.96 517.374C1107.12 517.073 1107.28 516.774 1107.44 516.477C1107.46 516.424 1107.49 516.372 1107.52 516.32L1107.67 516.053L1107.71 515.959C1107.78 515.737 1107.68 515.49 1107.47 515.373ZM1621.53 515.373C1621.49 515.394 1621.46 515.421 1621.43 515.449C1622.52 517.339 1623.49 519.308 1624.32 521.344C1624.35 521.338 1624.37 521.332 1624.4 521.322C1624.41 521.318 1624.42 521.312 1624.43 521.307C1623.61 519.251 1622.65 517.262 1621.58 515.35C1621.56 515.357 1621.54 515.363 1621.53 515.373ZM1114.05 506.31C1113.85 506.132 1113.55 506.144 1113.37 506.329C1113.19 506.521 1113.02 506.712 1112.85 506.906C1112.02 507.872 1111.22 508.87 1110.45 509.897C1110.23 510.191 1110.02 510.486 1109.8 510.784C1109.65 511.008 1109.71 511.314 1109.93 511.472C1110.15 511.632 1110.47 511.579 1110.63 511.354L1110.63 511.345C1110.64 511.338 1110.64 511.332 1110.65 511.325C1110.86 511.023 1111.08 510.723 1111.3 510.426C1111.32 510.402 1111.34 510.379 1111.36 510.355C1111.57 510.073 1111.78 509.794 1112 509.517C1112.05 509.458 1112.09 509.399 1112.14 509.34C1112.58 508.78 1113.03 508.23 1113.5 507.69C1113.53 507.651 1113.57 507.61 1113.6 507.57C1113.61 507.559 1113.62 507.547 1113.63 507.536L1114.09 507.016L1114.15 506.934C1114.27 506.733 1114.23 506.471 1114.05 506.31ZM1618.64 511.163C1618.73 511.29 1618.83 511.417 1618.92 511.544C1618.97 511.529 1619.02 511.506 1619.07 511.472C1619.09 511.455 1619.12 511.436 1619.13 511.417C1619.04 511.282 1618.95 511.147 1618.85 511.013L1618.64 511.163ZM1615.05 506.239C1615.02 506.258 1614.98 506.281 1614.95 506.31C1614.89 506.366 1614.84 506.436 1614.82 506.51C1616.18 507.982 1617.46 509.535 1618.64 511.163L1618.78 511.064L1618.85 511.013C1617.68 509.345 1616.41 507.751 1615.05 506.239ZM1122.47 498.929C1122.31 498.707 1122.01 498.653 1121.79 498.804C1121.49 499.016 1121.19 499.232 1120.9 499.45C1119.87 500.214 1118.87 501.015 1117.91 501.854C1117.71 502.022 1117.52 502.194 1117.33 502.365C1117.14 502.551 1117.13 502.852 1117.31 503.051C1117.47 503.231 1117.73 503.266 1117.93 503.149L1118.02 503.09L1118.54 502.631C1118.55 502.619 1118.56 502.607 1118.58 502.595C1118.62 502.562 1118.65 502.53 1118.69 502.498C1119.23 502.033 1119.78 501.579 1120.34 501.137C1120.4 501.09 1120.46 501.044 1120.52 500.998C1120.79 500.781 1121.07 500.567 1121.36 500.355C1121.38 500.338 1121.4 500.32 1121.43 500.303C1121.73 500.074 1122.04 499.848 1122.35 499.626C1122.58 499.466 1122.63 499.154 1122.47 498.929ZM1606.69 498.785C1606.63 498.82 1606.57 498.867 1606.53 498.929C1606.45 499.037 1606.42 499.165 1606.44 499.287C1608.19 500.488 1609.86 501.795 1611.44 503.202C1611.53 503.179 1611.62 503.128 1611.69 503.051C1611.73 503.01 1611.75 502.963 1611.77 502.915C1610.17 501.433 1608.47 500.052 1606.69 498.785ZM1132.32 493.603C1132.22 493.351 1131.93 493.229 1131.68 493.328C1131.63 493.348 1131.58 493.369 1131.53 493.389C1129.92 494.062 1128.36 494.817 1126.83 495.647C1126.74 495.701 1126.64 495.757 1126.54 495.812C1126.32 495.953 1126.24 496.241 1126.37 496.473C1126.49 496.684 1126.74 496.777 1126.96 496.708L1127.05 496.668L1127.32 496.521C1127.37 496.493 1127.43 496.464 1127.48 496.436C1127.77 496.275 1128.07 496.117 1128.38 495.962C1128.45 495.921 1128.53 495.882 1128.61 495.842C1129.26 495.515 1129.91 495.201 1130.57 494.901C1130.6 494.887 1130.63 494.873 1130.66 494.858C1130.99 494.712 1131.31 494.569 1131.64 494.429C1131.7 494.403 1131.76 494.378 1131.82 494.353L1132.05 494.256L1132.14 494.208C1132.33 494.078 1132.41 493.826 1132.32 493.603ZM1596.9 493.359C1596.8 493.412 1596.72 493.495 1596.68 493.603C1596.61 493.775 1596.64 493.963 1596.75 494.101C1598.65 494.864 1600.5 495.739 1602.28 496.72C1602.42 496.694 1602.55 496.61 1602.63 496.473C1602.67 496.393 1602.69 496.306 1602.69 496.221C1600.83 495.149 1598.89 494.192 1596.9 493.359ZM1142.55 490.205C1142.48 490.217 1142.41 490.229 1142.34 490.241C1140.55 490.55 1138.79 490.952 1137.08 491.444C1137.05 491.451 1137.03 491.457 1137.01 491.464C1136.75 491.542 1136.6 491.817 1136.67 492.08C1136.74 492.312 1136.96 492.459 1137.19 492.44L1137.29 492.423L1137.38 492.397C1137.52 492.357 1137.67 492.318 1137.81 492.278C1137.87 492.262 1137.92 492.245 1137.98 492.229C1138.1 492.197 1138.22 492.165 1138.35 492.133C1138.51 492.09 1138.67 492.047 1138.84 492.006C1139.18 491.919 1139.53 491.835 1139.88 491.755C1139.98 491.731 1140.09 491.707 1140.19 491.684C1140.31 491.659 1140.42 491.633 1140.53 491.609C1140.64 491.586 1140.74 491.564 1140.85 491.542C1140.96 491.519 1141.08 491.495 1141.19 491.473C1141.28 491.455 1141.36 491.438 1141.45 491.421C1141.58 491.396 1141.71 491.372 1141.83 491.348C1141.94 491.329 1142.04 491.31 1142.14 491.292C1142.27 491.268 1142.4 491.245 1142.54 491.222C1142.59 491.212 1142.65 491.202 1142.7 491.192C1142.98 491.146 1143.16 490.888 1143.11 490.616C1143.07 490.347 1142.82 490.164 1142.55 490.205ZM1586.18 490.243C1586.03 490.309 1585.92 490.445 1585.89 490.616C1585.85 490.851 1585.98 491.074 1586.19 491.16C1588.13 491.477 1590.04 491.906 1591.9 492.438C1592.1 492.417 1592.27 492.281 1592.33 492.08C1592.37 491.947 1592.35 491.811 1592.29 491.699C1590.3 491.092 1588.26 490.604 1586.18 490.243ZM1151 489.5C1150.08 489.5 1149.16 489.526 1148.25 489.574C1148.22 489.576 1148.19 489.578 1148.16 489.58C1147.89 489.6 1147.68 489.832 1147.7 490.104C1147.71 490.38 1147.95 490.591 1148.22 490.576C1148.28 490.573 1148.33 490.571 1148.38 490.568C1148.47 490.564 1148.55 490.56 1148.64 490.556C1148.76 490.55 1148.88 490.545 1149 490.54C1149.13 490.535 1149.27 490.531 1149.4 490.526C1149.49 490.523 1149.58 490.52 1149.67 490.518C1149.83 490.513 1149.98 490.51 1150.14 490.508C1150.2 490.507 1150.26 490.505 1150.32 490.504C1150.54 490.501 1150.77 490.5 1151 490.5H1153.97C1154.24 490.5 1154.47 490.276 1154.47 490C1154.47 489.724 1154.24 489.5 1153.97 489.5H1151ZM1575.04 489.5C1574.76 489.5 1574.54 489.724 1574.54 490C1574.54 490.276 1574.76 490.5 1575.04 490.5H1578C1578.23 490.5 1578.46 490.501 1578.7 490.504C1578.71 490.504 1578.72 490.505 1578.73 490.505C1578.94 490.508 1579.16 490.513 1579.37 490.519C1579.4 490.519 1579.43 490.521 1579.46 490.521C1579.9 490.534 1580.34 490.551 1580.78 490.575C1581.05 490.589 1581.29 490.38 1581.3 490.104C1581.32 489.891 1581.19 489.703 1581.01 489.621C1579.85 489.542 1578.68 489.5 1577.5 489.5H1575.04ZM1563.17 489.5C1562.9 489.5 1562.67 489.724 1562.67 490C1562.67 490.276 1562.9 490.5 1563.17 490.5H1569.1C1569.38 490.5 1569.6 490.276 1569.6 490C1569.6 489.724 1569.38 489.5 1569.1 489.5H1563.17ZM1551.31 489.5C1551.04 489.5 1550.81 489.724 1550.81 490C1550.81 490.276 1551.04 490.5 1551.31 490.5H1557.24C1557.52 490.5 1557.74 490.276 1557.74 490C1557.74 489.724 1557.52 489.5 1557.24 489.5H1551.31ZM1539.45 489.5C1539.18 489.5 1538.95 489.724 1538.95 490C1538.95 490.276 1539.18 490.5 1539.45 490.5H1545.38C1545.66 490.5 1545.88 490.276 1545.88 490C1545.88 489.724 1545.66 489.5 1545.38 489.5H1539.45ZM1527.59 489.5C1527.31 489.5 1527.09 489.724 1527.09 490C1527.09 490.276 1527.31 490.5 1527.59 490.5H1533.52C1533.8 490.5 1534.02 490.276 1534.02 490C1534.02 489.724 1533.8 489.5 1533.52 489.5H1527.59ZM1515.73 489.5L1515.63 489.51C1515.4 489.557 1515.23 489.759 1515.23 490C1515.23 490.241 1515.4 490.443 1515.63 490.49L1515.73 490.5H1521.66C1521.94 490.5 1522.16 490.276 1522.16 490C1522.16 489.724 1521.94 489.5 1521.66 489.5H1515.73ZM1503.87 489.5C1503.59 489.5 1503.37 489.724 1503.37 490C1503.37 490.276 1503.59 490.5 1503.87 490.5H1509.8C1510.07 490.5 1510.3 490.276 1510.3 490C1510.3 489.724 1510.07 489.5 1509.8 489.5H1503.87ZM1492.01 489.5L1491.91 489.51C1491.68 489.556 1491.51 489.758 1491.51 490C1491.51 490.242 1491.68 490.444 1491.91 490.49L1492.01 490.5H1497.94C1498.21 490.5 1498.44 490.276 1498.44 490C1498.44 489.724 1498.21 489.5 1497.94 489.5H1492.01ZM1480.15 489.5C1479.87 489.5 1479.65 489.724 1479.65 490C1479.65 490.276 1479.87 490.5 1480.15 490.5H1486.08C1486.35 490.5 1486.58 490.276 1486.58 490C1486.58 489.724 1486.35 489.5 1486.08 489.5H1480.15ZM1468.29 489.5L1468.18 489.51C1467.96 489.556 1467.79 489.758 1467.79 490C1467.79 490.242 1467.96 490.444 1468.18 490.49L1468.29 490.5H1474.21C1474.49 490.5 1474.71 490.276 1474.71 490C1474.71 489.724 1474.49 489.5 1474.21 489.5H1468.29ZM1456.42 489.5L1456.32 489.51C1456.1 489.556 1455.92 489.758 1455.92 490C1455.92 490.242 1456.1 490.444 1456.32 490.49L1456.42 490.5H1462.35C1462.63 490.5 1462.85 490.276 1462.85 490C1462.85 489.724 1462.63 489.5 1462.35 489.5H1456.42ZM1444.56 489.5C1444.29 489.5 1444.06 489.724 1444.06 490C1444.06 490.276 1444.29 490.5 1444.56 490.5H1450.49C1450.77 490.5 1450.99 490.276 1450.99 490C1450.99 489.724 1450.77 489.5 1450.49 489.5H1444.56ZM1432.7 489.5C1432.43 489.5 1432.2 489.724 1432.2 490C1432.2 490.276 1432.43 490.5 1432.7 490.5H1438.63C1438.91 490.5 1439.13 490.276 1439.13 490C1439.13 489.724 1438.91 489.5 1438.63 489.5H1432.7ZM1420.84 489.5L1420.74 489.51C1420.51 489.556 1420.34 489.758 1420.34 490C1420.34 490.242 1420.51 490.444 1420.74 490.49L1420.84 490.5H1426.77C1427.05 490.5 1427.27 490.276 1427.27 490C1427.27 489.724 1427.05 489.5 1426.77 489.5H1420.84ZM1408.98 489.5L1408.88 489.51C1408.65 489.557 1408.48 489.758 1408.48 490C1408.48 490.242 1408.65 490.443 1408.88 490.49L1408.98 490.5H1414.91C1415.19 490.5 1415.41 490.276 1415.41 490C1415.41 489.724 1415.19 489.5 1414.91 489.5H1408.98ZM1397.12 489.5L1397.02 489.51C1396.79 489.556 1396.62 489.758 1396.62 490C1396.62 490.242 1396.79 490.444 1397.02 490.49L1397.12 490.5H1403.05C1403.32 490.5 1403.55 490.276 1403.55 490C1403.55 489.724 1403.32 489.5 1403.05 489.5H1397.12ZM1385.26 489.5C1384.98 489.5 1384.76 489.724 1384.76 490C1384.76 490.276 1384.98 490.5 1385.26 490.5H1391.19C1391.46 490.5 1391.69 490.276 1391.69 490C1391.69 489.724 1391.46 489.5 1391.19 489.5H1385.26ZM1373.4 489.5C1373.12 489.5 1372.9 489.724 1372.9 490C1372.9 490.276 1373.12 490.5 1373.4 490.5H1379.33C1379.6 490.5 1379.83 490.276 1379.83 490C1379.83 489.724 1379.6 489.5 1379.33 489.5H1373.4ZM1361.54 489.5C1361.26 489.5 1361.04 489.724 1361.04 490C1361.04 490.276 1361.26 490.5 1361.54 490.5H1367.46C1367.74 490.5 1367.96 490.276 1367.96 490C1367.96 489.724 1367.74 489.5 1367.46 489.5H1361.54ZM1349.67 489.5C1349.4 489.5 1349.17 489.724 1349.17 490C1349.17 490.276 1349.4 490.5 1349.67 490.5H1355.6C1355.88 490.5 1356.1 490.276 1356.1 490C1356.1 489.724 1355.88 489.5 1355.6 489.5H1349.67ZM1337.81 489.5C1337.54 489.5 1337.31 489.724 1337.31 490C1337.31 490.276 1337.54 490.5 1337.81 490.5H1343.74C1344.02 490.5 1344.24 490.276 1344.24 490C1344.24 489.724 1344.02 489.5 1343.74 489.5H1337.81ZM1325.95 489.5C1325.68 489.5 1325.45 489.724 1325.45 490C1325.45 490.276 1325.68 490.5 1325.95 490.5H1331.88C1332.16 490.5 1332.38 490.276 1332.38 490C1332.38 489.724 1332.16 489.5 1331.88 489.5H1325.95ZM1314.09 489.5L1313.99 489.51C1313.76 489.556 1313.59 489.758 1313.59 490C1313.59 490.242 1313.76 490.444 1313.99 490.49L1314.09 490.5H1320.02C1320.3 490.5 1320.52 490.276 1320.52 490C1320.52 489.724 1320.3 489.5 1320.02 489.5H1314.09ZM1302.23 489.5L1302.13 489.51C1301.9 489.557 1301.73 489.758 1301.73 490C1301.73 490.242 1301.9 490.443 1302.13 490.49L1302.23 490.5H1308.16C1308.44 490.5 1308.66 490.276 1308.66 490C1308.66 489.724 1308.44 489.5 1308.16 489.5H1302.23ZM1290.37 489.5L1290.27 489.51C1290.04 489.556 1289.87 489.758 1289.87 490C1289.87 490.242 1290.04 490.444 1290.27 490.49L1290.37 490.5H1296.3C1296.57 490.5 1296.8 490.276 1296.8 490C1296.8 489.724 1296.57 489.5 1296.3 489.5H1290.37ZM1278.51 489.5L1278.41 489.51C1278.18 489.556 1278.01 489.758 1278.01 490C1278.01 490.242 1278.18 490.444 1278.41 490.49L1278.51 490.5H1284.44C1284.71 490.5 1284.94 490.276 1284.94 490C1284.94 489.724 1284.71 489.5 1284.44 489.5H1278.51ZM1266.65 489.5L1266.54 489.51C1266.32 489.556 1266.15 489.758 1266.15 490C1266.15 490.242 1266.32 490.444 1266.54 490.49L1266.65 490.5H1272.58C1272.85 490.5 1273.08 490.276 1273.08 490C1273.08 489.724 1272.85 489.5 1272.58 489.5H1266.65ZM1254.79 489.5C1254.51 489.5 1254.29 489.724 1254.29 490C1254.29 490.276 1254.51 490.5 1254.79 490.5H1260.72C1260.99 490.5 1261.22 490.276 1261.22 490C1261.22 489.724 1260.99 489.5 1260.72 489.5H1254.79ZM1242.92 489.5L1242.82 489.51C1242.6 489.556 1242.42 489.758 1242.42 490C1242.42 490.242 1242.6 490.444 1242.82 490.49L1242.92 490.5H1248.85C1249.13 490.5 1249.35 490.276 1249.35 490C1249.35 489.724 1249.13 489.5 1248.85 489.5H1242.92ZM1231.06 489.5L1230.96 489.51C1230.73 489.556 1230.56 489.758 1230.56 490C1230.56 490.242 1230.73 490.444 1230.96 490.49L1231.06 490.5H1236.99C1237.27 490.5 1237.49 490.276 1237.49 490C1237.49 489.724 1237.27 489.5 1236.99 489.5H1231.06ZM1219.2 489.5C1218.93 489.5 1218.7 489.724 1218.7 490C1218.7 490.276 1218.93 490.5 1219.2 490.5H1225.13C1225.41 490.5 1225.63 490.276 1225.63 490C1225.63 489.724 1225.41 489.5 1225.13 489.5H1219.2ZM1207.34 489.5L1207.24 489.51C1207.01 489.557 1206.84 489.759 1206.84 490C1206.84 490.241 1207.01 490.443 1207.24 490.49L1207.34 490.5H1213.27C1213.55 490.5 1213.77 490.276 1213.77 490C1213.77 489.724 1213.55 489.5 1213.27 489.5H1207.34ZM1195.48 489.5L1195.38 489.51C1195.15 489.556 1194.98 489.758 1194.98 490C1194.98 490.242 1195.15 490.444 1195.38 490.49L1195.48 490.5H1201.41C1201.69 490.5 1201.91 490.276 1201.91 490C1201.91 489.724 1201.69 489.5 1201.41 489.5H1195.48ZM1183.62 489.5L1183.52 489.51C1183.29 489.556 1183.12 489.758 1183.12 490C1183.12 490.242 1183.29 490.444 1183.52 490.49L1183.62 490.5H1189.55C1189.82 490.5 1190.05 490.276 1190.05 490C1190.05 489.724 1189.82 489.5 1189.55 489.5H1183.62ZM1171.76 489.5C1171.48 489.5 1171.26 489.724 1171.26 490C1171.26 490.276 1171.48 490.5 1171.76 490.5H1177.69C1177.96 490.5 1178.19 490.276 1178.19 490C1178.19 489.724 1177.96 489.5 1177.69 489.5H1171.76ZM1159.9 489.5C1159.62 489.5 1159.4 489.724 1159.4 490C1159.4 490.276 1159.62 490.5 1159.9 490.5H1165.83C1166.1 490.5 1166.33 490.276 1166.33 490C1166.33 489.724 1166.1 489.5 1165.83 489.5H1159.9Z" fill="#BBCBF4"/>
<path d="M1628 49C1628 21.3858 1605.61 -1 1578 -1H1213V514C1213 541.614 1235.39 564 1263 564H1578C1605.61 564 1628 541.614 1628 514V49Z" stroke="#BBCBF4" stroke-linecap="round"/>
<g filter="url(#filter0_d_3_5)">
<rect x="351" y="651" width="120" height="120" rx="15" fill="white"/>
</g>
<g filter="url(#filter1_d_3_5)">
<rect x="696" y="651" width="120" height="120" rx="15" fill="white"/>
</g>
<g filter="url(#filter2_d_3_5)">
<rect x="1041" y="651" width="120" height="120" rx="15" fill="white"/>
</g>
<path d="M655.2 808.264C655.2 807.645 655.349 807.043 655.648 806.456C655.946 805.869 656.437 805.224 657.12 804.52L656.416 803.816L657.632 802.536C658.656 803.421 659.445 804.179 660 804.808C660.554 805.427 660.944 805.987 661.168 806.488C661.392 806.979 661.504 807.496 661.504 808.04C661.504 808.979 661.205 809.736 660.608 810.312C660.01 810.877 659.21 811.16 658.208 811.16C657.28 811.16 656.544 810.909 656 810.408C655.466 809.896 655.2 809.181 655.2 808.264ZM659.792 808.04C659.792 807.645 659.674 807.261 659.44 806.888C659.216 806.504 658.832 806.077 658.288 805.608C657.797 806.088 657.44 806.531 657.216 806.936C657.002 807.341 656.896 807.757 656.896 808.184C656.896 808.557 657.013 808.851 657.248 809.064C657.493 809.277 657.834 809.384 658.272 809.384C658.741 809.384 659.109 809.261 659.376 809.016C659.653 808.771 659.792 808.445 659.792 808.04ZM667.2 809.224C667.914 809.224 668.272 808.963 668.272 808.44C668.272 808.301 668.213 808.067 668.096 807.736L666.544 803.464L668.112 802.728L669.968 808.024C670.128 808.472 670.298 808.787 670.48 808.968C670.661 809.139 670.922 809.224 671.264 809.224H671.648C671.754 809.224 671.808 809.533 671.808 810.152C671.808 810.515 671.792 810.749 671.76 810.856C671.728 810.952 671.69 811 671.648 811H671.2C670.709 811 670.304 810.925 669.984 810.776C669.664 810.627 669.402 810.392 669.2 810.072C669.008 810.392 668.746 810.627 668.416 810.776C668.096 810.925 667.69 811 667.2 811H663.552L663.408 809.224H667.2ZM676.041 808.088C676.041 809.027 675.79 809.747 675.289 810.248C674.798 810.749 674.126 811 673.273 811H671.641C671.534 811 671.481 810.717 671.481 810.152C671.481 809.533 671.534 809.224 671.641 809.224H673.273C673.603 809.224 673.865 809.133 674.057 808.952C674.249 808.76 674.345 808.477 674.345 808.104V805.672H676.041V808.088ZM671.961 814.456V812.856H673.881V814.456H671.961ZM683.833 812.84C683.833 813.491 684.052 813.971 684.489 814.28C684.926 814.6 685.625 814.76 686.585 814.76H690.073L689.929 816.536H686.505C685.033 816.536 683.934 816.227 683.209 815.608C682.494 815 682.137 814.104 682.137 812.92C682.137 811.96 682.398 811.123 682.921 810.408C683.454 809.683 684.34 809.043 685.577 808.488L688.217 807.272C688.046 806.824 687.86 806.525 687.657 806.376C687.465 806.227 687.14 806.152 686.681 806.152H682.937L683.081 804.392H686.969C687.62 804.392 688.148 804.504 688.553 804.728C688.969 804.952 689.305 805.325 689.561 805.848C689.817 806.36 690.03 807.075 690.201 807.992L688.985 808.568C689.102 808.824 689.257 809 689.449 809.096C689.641 809.181 689.934 809.224 690.329 809.224H691.257C691.364 809.224 691.417 809.533 691.417 810.152C691.417 810.515 691.401 810.749 691.369 810.856C691.337 810.952 691.3 811 691.257 811H690.265C689.572 811 689.028 810.877 688.633 810.632C688.238 810.376 687.886 809.912 687.577 809.24L686.217 809.896C685.588 810.205 685.102 810.499 684.761 810.776C684.42 811.053 684.18 811.352 684.041 811.672C683.902 811.992 683.833 812.381 683.833 812.84ZM684.841 802.6V801H686.761V802.6H684.841ZM692.514 809.224C692.941 809.224 693.266 809.128 693.49 808.936C693.714 808.733 693.826 808.456 693.826 808.104V805.672H695.522V808.104C695.522 808.851 695.954 809.224 696.818 809.224C697.245 809.224 697.57 809.128 697.794 808.936C698.018 808.733 698.13 808.456 698.13 808.104V805.672H699.826V808.104C699.826 808.851 700.226 809.224 701.026 809.224C701.431 809.224 701.735 809.128 701.938 808.936C702.141 808.744 702.242 808.467 702.242 808.104V805.672H703.954V808.088C703.954 809.005 703.693 809.72 703.17 810.232C702.658 810.744 701.943 811 701.026 811C699.938 811 699.229 810.691 698.898 810.072C698.482 810.691 697.789 811 696.818 811C696.21 811 695.73 810.925 695.378 810.776C695.026 810.616 694.77 810.381 694.61 810.072C694.194 810.691 693.495 811 692.514 811H691.25C691.143 811 691.09 810.717 691.09 810.152C691.09 809.533 691.143 809.224 691.25 809.224H692.514ZM709.573 809.224C709.626 809.224 709.664 809.283 709.685 809.4C709.717 809.517 709.733 809.768 709.733 810.152C709.733 810.504 709.717 810.733 709.685 810.84C709.664 810.947 709.626 811 709.573 811H709.077C708.213 811 707.562 810.749 707.125 810.248C706.688 809.747 706.469 809.032 706.469 808.104V800.664H708.165V807.992C708.165 808.419 708.245 808.733 708.405 808.936C708.576 809.128 708.837 809.224 709.189 809.224H709.573ZM713.978 808.088C713.978 809.027 713.727 809.747 713.226 810.248C712.735 810.749 712.063 811 711.21 811H709.578C709.471 811 709.418 810.717 709.418 810.152C709.418 809.533 709.471 809.224 709.578 809.224H711.21C711.541 809.224 711.802 809.133 711.994 808.952C712.186 808.76 712.282 808.477 712.282 808.104V805.672H713.978V808.088ZM710.026 816.824V815.288H711.69V816.824H710.026ZM708.666 814.44V812.856H713.05V814.44H708.666ZM720.075 808.264C720.075 807.645 720.224 807.043 720.523 806.456C720.821 805.869 721.312 805.224 721.995 804.52L721.291 803.816L722.507 802.536C723.531 803.421 724.32 804.179 724.875 804.808C725.429 805.427 725.819 805.987 726.043 806.488C726.267 806.979 726.379 807.496 726.379 808.04C726.379 808.979 726.08 809.736 725.483 810.312C724.885 810.877 724.085 811.16 723.083 811.16C722.155 811.16 721.419 810.909 720.875 810.408C720.341 809.896 720.075 809.181 720.075 808.264ZM724.667 808.04C724.667 807.645 724.549 807.261 724.315 806.888C724.091 806.504 723.707 806.077 723.163 805.608C722.672 806.088 722.315 806.531 722.091 806.936C721.877 807.341 721.771 807.757 721.771 808.184C721.771 808.557 721.888 808.851 722.123 809.064C722.368 809.277 722.709 809.384 723.147 809.384C723.616 809.384 723.984 809.261 724.251 809.016C724.528 808.771 724.667 808.445 724.667 808.04ZM731.819 802.776L734.763 806.2C735.147 806.637 735.413 807.037 735.562 807.4C735.712 807.752 735.786 808.125 735.786 808.52C735.786 809.245 735.531 809.843 735.019 810.312C734.517 810.771 733.813 811 732.907 811H728.427L728.283 809.224H732.907C733.685 809.224 734.075 808.968 734.075 808.456C734.075 808.285 734.027 808.115 733.931 807.944C733.845 807.773 733.696 807.565 733.483 807.32L730.619 803.976L731.819 802.776ZM741.417 809.224C741.47 809.224 741.507 809.283 741.529 809.4C741.561 809.517 741.577 809.768 741.577 810.152C741.577 810.504 741.561 810.733 741.529 810.84C741.507 810.947 741.47 811 741.417 811H740.921C740.057 811 739.406 810.749 738.969 810.248C738.531 809.747 738.313 809.032 738.313 808.104V800.664H740.009V807.992C740.009 808.419 740.089 808.733 740.249 808.936C740.419 809.128 740.681 809.224 741.033 809.224H741.417ZM742.686 809.224C743.113 809.224 743.438 809.128 743.662 808.936C743.886 808.733 743.998 808.456 743.998 808.104V805.672H745.694V808.104C745.694 808.851 746.126 809.224 746.99 809.224C747.417 809.224 747.742 809.128 747.966 808.936C748.19 808.733 748.302 808.456 748.302 808.104V805.672H749.998V808.104C749.998 808.851 750.398 809.224 751.198 809.224C751.603 809.224 751.907 809.128 752.11 808.936C752.313 808.744 752.414 808.467 752.414 808.104V805.672H754.126V808.088C754.126 809.005 753.865 809.72 753.342 810.232C752.83 810.744 752.115 811 751.198 811C750.11 811 749.401 810.691 749.07 810.072C748.654 810.691 747.961 811 746.99 811C746.382 811 745.902 810.925 745.55 810.776C745.198 810.616 744.942 810.381 744.782 810.072C744.366 810.691 743.667 811 742.686 811H741.422C741.315 811 741.262 810.717 741.262 810.152C741.262 809.533 741.315 809.224 741.422 809.224H742.686ZM764.487 814.872C763.111 814.872 762.055 814.477 761.319 813.688C760.583 812.899 760.215 811.795 760.215 810.376V807.272H761.911V810.344C761.911 812.179 762.775 813.096 764.503 813.096H765.143C765.997 813.096 766.663 812.861 767.143 812.392C767.634 811.933 767.879 811.299 767.879 810.488V800.664H769.575V810.344C769.575 811.293 769.389 812.104 769.015 812.776C768.642 813.459 768.119 813.976 767.447 814.328C766.786 814.691 766.018 814.872 765.143 814.872H764.487ZM772.266 800.664H773.962V811H772.266V800.664ZM784.065 809.224C784.171 809.224 784.225 809.533 784.225 810.152C784.225 810.717 784.171 811 784.065 811H782.689C782.582 812.205 782.161 813.149 781.425 813.832C780.689 814.525 779.729 814.872 778.545 814.872H776.465L776.321 813.096H778.593C779.339 813.096 779.926 812.909 780.353 812.536C780.79 812.163 781.009 811.677 781.009 811.08V811H779.681C778.635 811 777.846 810.755 777.312 810.264C776.779 809.773 776.513 809.048 776.513 808.088V808.008C776.513 807.325 776.641 806.717 776.897 806.184C777.163 805.64 777.531 805.219 778.001 804.92C778.481 804.611 779.025 804.456 779.633 804.456C780.582 804.456 781.329 804.776 781.873 805.416C782.427 806.045 782.705 806.92 782.705 808.04V809.224H784.065ZM778.209 807.96C778.209 808.419 778.315 808.744 778.529 808.936C778.753 809.128 779.137 809.224 779.681 809.224H781.009V808.04C781.009 807.432 780.881 806.968 780.625 806.648C780.379 806.317 780.027 806.152 779.569 806.152C779.142 806.152 778.806 806.312 778.561 806.632C778.326 806.941 778.209 807.357 778.209 807.88V807.96ZM778.609 801.064C778.342 800.925 778.134 800.728 777.985 800.472C777.835 800.205 777.761 799.923 777.761 799.624C777.761 799.059 777.942 798.605 778.305 798.264C778.667 797.912 779.142 797.736 779.729 797.736H780.545V798.808H779.713C779.446 798.808 779.227 798.883 779.057 799.032C778.886 799.181 778.801 799.373 778.801 799.608C778.801 799.843 778.881 800.04 779.041 800.2C779.211 800.349 779.414 800.424 779.649 800.424C779.798 800.424 779.969 800.381 780.161 800.296C780.353 800.211 780.689 800.04 781.169 799.784L781.585 800.76L778.193 802.504L777.697 801.544L778.609 801.064ZM785.327 809.224C785.753 809.224 786.079 809.128 786.303 808.936C786.527 808.733 786.639 808.456 786.639 808.104V805.672H788.335V808.104C788.335 808.851 788.767 809.224 789.631 809.224C790.057 809.224 790.383 809.128 790.607 808.936C790.831 808.733 790.943 808.456 790.943 808.104V805.672H792.639V808.104C792.639 808.851 793.039 809.224 793.839 809.224C794.244 809.224 794.548 809.128 794.751 808.936C794.953 808.744 795.055 808.467 795.055 808.104V805.672H796.767V808.088C796.767 809.005 796.505 809.72 795.983 810.232C795.471 810.744 794.756 811 793.839 811C792.751 811 792.041 810.691 791.711 810.072C791.295 810.691 790.601 811 789.631 811C789.023 811 788.543 810.925 788.191 810.776C787.839 810.616 787.583 810.381 787.423 810.072C787.007 810.691 786.308 811 785.327 811H784.062C783.956 811 783.902 810.717 783.902 810.152C783.902 809.533 783.956 809.224 784.062 809.224H785.327ZM806.184 809.224C806.899 809.224 807.256 808.963 807.256 808.44C807.256 808.301 807.197 808.067 807.08 807.736L805.528 803.464L807.096 802.728L808.952 808.024C809.112 808.472 809.283 808.787 809.464 808.968C809.645 809.139 809.907 809.224 810.248 809.224H810.632C810.739 809.224 810.792 809.533 810.792 810.152C810.792 810.515 810.776 810.749 810.744 810.856C810.712 810.952 810.675 811 810.632 811H810.184C809.693 811 809.288 810.925 808.968 810.776C808.648 810.627 808.387 810.392 808.184 810.072C807.992 810.392 807.731 810.627 807.4 810.776C807.08 810.925 806.675 811 806.184 811H802.536L802.392 809.224H806.184ZM812.545 809.224C812.876 809.224 813.142 809.139 813.345 808.968C813.548 808.787 813.649 808.547 813.649 808.248V805.672H815.345V808.168C815.345 808.872 815.708 809.224 816.433 809.224H816.993C817.1 809.224 817.153 809.523 817.153 810.12C817.153 810.707 817.1 811 816.993 811H816.369C815.43 811 814.806 810.717 814.497 810.152C814.102 810.717 813.452 811 812.545 811H810.625C810.518 811 810.465 810.717 810.465 810.152C810.465 809.533 810.518 809.224 810.625 809.224H812.545ZM812.721 803.848V802.248H814.641V803.848H812.721ZM818.168 809.224C818.979 809.224 819.661 809.171 820.216 809.064C820.771 808.957 821.299 808.76 821.8 808.472L823.752 807.352C823.613 806.904 823.416 806.595 823.16 806.424C822.904 806.243 822.531 806.152 822.04 806.152H818.408L818.552 804.392H822.328C823 804.392 823.544 804.504 823.96 804.728C824.376 804.941 824.723 805.299 825 805.8C825.277 806.301 825.523 807.011 825.736 807.928L822.584 809.896C821.912 810.312 821.235 810.6 820.552 810.76C819.88 810.92 819.064 811 818.104 811H817C816.893 811 816.84 810.717 816.84 810.152C816.84 809.533 816.893 809.224 817 809.224H818.168ZM819.848 816.824V815.288H821.512V816.824H819.848ZM818.488 814.44V812.856H822.872V814.44H818.488ZM833.052 807.208C833.052 807.635 833.153 807.955 833.356 808.168C833.559 808.381 833.879 808.488 834.316 808.488C834.807 808.488 835.185 808.403 835.452 808.232C835.719 808.061 835.852 807.821 835.852 807.512V805.592H834.572C834.092 805.592 833.719 805.731 833.452 806.008C833.185 806.285 833.052 806.685 833.052 807.208ZM837.548 807.88C837.548 808.349 837.628 808.691 837.788 808.904C837.959 809.117 838.209 809.224 838.54 809.224H838.988C839.041 809.224 839.079 809.283 839.1 809.4C839.132 809.517 839.148 809.768 839.148 810.152C839.148 810.504 839.132 810.733 839.1 810.84C839.079 810.947 839.041 811 838.988 811H838.54C837.953 811 837.473 810.893 837.1 810.68C836.737 810.467 836.481 810.115 836.332 809.624C836.108 809.837 835.809 809.997 835.436 810.104C835.063 810.2 834.663 810.248 834.236 810.248C833.297 810.248 832.583 809.997 832.092 809.496C831.601 808.984 831.356 808.227 831.356 807.224C831.356 806.627 831.489 806.077 831.756 805.576C832.023 805.064 832.401 804.659 832.892 804.36C833.383 804.051 833.943 803.896 834.572 803.896H835.852V802.84H837.548V807.88ZM843.384 808.088C843.384 809.027 843.134 809.747 842.632 810.248C842.142 810.749 841.47 811 840.616 811H838.984C838.878 811 838.824 810.717 838.824 810.152C838.824 809.533 838.878 809.224 838.984 809.224H840.616C840.947 809.224 841.208 809.133 841.4 808.952C841.592 808.76 841.688 808.477 841.688 808.104V805.672H843.384V808.088ZM839.304 814.456V812.856H841.224V814.456H839.304ZM846.771 811C846.408 811 846.147 810.909 845.987 810.728C845.827 810.547 845.747 810.264 845.747 809.88C845.747 809.496 845.827 809.224 845.987 809.064C846.147 808.893 846.408 808.808 846.771 808.808C847.133 808.808 847.395 808.893 847.555 809.064C847.715 809.224 847.795 809.496 847.795 809.88C847.795 810.264 847.709 810.547 847.539 810.728C847.379 810.909 847.123 811 846.771 811ZM853.385 806.296C852.873 806.296 852.521 806.189 852.329 805.976V806.824V811H850.633V806.856C850.633 805.811 850.579 804.909 850.473 804.152C850.366 803.384 850.153 802.467 849.833 801.4L851.465 800.824L852.185 803.624C852.334 804.221 852.691 804.52 853.257 804.52C853.534 804.52 853.769 804.435 853.961 804.264C854.163 804.093 854.265 803.869 854.265 803.592C854.265 803.24 854.158 802.44 853.945 801.192L855.641 800.824C855.854 802.019 855.961 802.963 855.961 803.656C855.961 804.157 855.849 804.611 855.625 805.016C855.401 805.421 855.091 805.736 854.697 805.96C854.313 806.184 853.875 806.296 853.385 806.296Z" fill="black"/>
<path d="M325.833 808.248C325.833 808.557 325.924 808.797 326.105 808.968C326.286 809.139 326.553 809.224 326.905 809.224H327.273C327.38 809.224 327.433 809.533 327.433 810.152C327.433 810.717 327.38 811 327.273 811H326.953C326.718 811 326.5 810.973 326.297 810.92C326.105 810.856 325.95 810.776 325.833 810.68V810.744C325.812 811.544 325.614 812.259 325.241 812.888C324.868 813.517 324.345 814.003 323.673 814.344C323.012 814.696 322.254 814.872 321.401 814.872H320.745C319.369 814.872 318.313 814.477 317.577 813.688C316.841 812.899 316.473 811.795 316.473 810.376V807.272H318.169V810.344C318.169 812.179 319.033 813.096 320.761 813.096H321.401C322.254 813.096 322.921 812.861 323.401 812.392C323.892 811.933 324.137 811.299 324.137 810.488V805.672H325.833V808.248ZM319.881 805.288V803.688H321.801V805.288H319.881ZM331.641 809.224C332.036 809.224 332.34 809.16 332.553 809.032C332.777 808.893 332.889 808.701 332.889 808.456C332.889 808.253 332.841 808.067 332.745 807.896C332.649 807.725 332.495 807.533 332.281 807.32L328.681 803.768V802.344L334.617 800.024L335.113 801.656L330.729 803.336L333.577 806.2C334.249 806.872 334.585 807.645 334.585 808.52C334.585 809.245 334.324 809.843 333.801 810.312C333.289 810.771 332.569 811 331.641 811H327.273C327.167 811 327.113 810.717 327.113 810.152C327.113 809.533 327.167 809.224 327.273 809.224H331.641ZM349.357 809.224C349.688 809.224 349.954 809.139 350.157 808.968C350.36 808.787 350.461 808.547 350.461 808.248V805.672H352.157V808.168C352.157 808.872 352.52 809.224 353.245 809.224H353.805C353.912 809.224 353.965 809.533 353.965 810.152C353.965 810.717 353.912 811 353.805 811H353.165C352.226 811 351.602 810.717 351.293 810.152C350.92 810.717 350.274 811 349.357 811H343.885C342.936 811 342.21 810.749 341.709 810.248C341.218 809.747 340.973 809.043 340.973 808.136V805.672H342.669V807.912C342.669 808.349 342.77 808.68 342.973 808.904C343.186 809.117 343.517 809.224 343.965 809.224H349.357ZM344.365 803.944V802.36H348.749V803.944H344.365ZM356.029 809.224C356.37 809.224 356.589 809.219 356.685 809.208C356.109 808.931 355.693 808.621 355.437 808.28C355.191 807.928 355.069 807.491 355.069 806.968C355.069 806.381 355.202 805.848 355.469 805.368C355.746 804.888 356.125 804.515 356.605 804.248C357.085 803.971 357.623 803.832 358.221 803.832C359.234 803.832 360.018 804.141 360.573 804.76C361.138 805.379 361.421 806.237 361.421 807.336V807.88C361.421 808.925 361.063 809.709 360.349 810.232C359.645 810.744 358.599 811 357.213 811H353.805C353.698 811 353.645 810.717 353.645 810.152C353.645 809.533 353.698 809.224 353.805 809.224H356.029ZM359.261 809C359.57 808.701 359.725 808.269 359.725 807.704V807.416C359.725 806.787 359.597 806.317 359.341 806.008C359.085 805.688 358.711 805.528 358.221 805.528C357.815 805.528 357.469 805.667 357.181 805.944C356.903 806.221 356.765 806.563 356.765 806.968C356.765 807.267 356.839 807.528 356.989 807.752C357.149 807.965 357.405 808.173 357.757 808.376C358.109 808.568 358.61 808.776 359.261 809ZM357.245 802.12V800.52H359.165V802.12H357.245ZM367.05 809.224C367.103 809.224 367.14 809.283 367.162 809.4C367.194 809.517 367.21 809.768 367.21 810.152C367.21 810.504 367.194 810.733 367.162 810.84C367.14 810.947 367.103 811 367.05 811H366.554C365.69 811 365.039 810.749 364.602 810.248C364.164 809.747 363.946 809.032 363.946 808.104V800.664H365.642V807.992C365.642 808.419 365.722 808.733 365.882 808.936C366.052 809.128 366.314 809.224 366.666 809.224H367.05ZM370.943 809.224C371.273 809.224 371.535 809.133 371.727 808.952C371.929 808.76 372.031 808.477 372.031 808.104V805.672H373.727V808.088C373.727 809.027 373.476 809.747 372.975 810.248C372.484 810.749 371.807 811 370.943 811H367.055C366.948 811 366.895 810.717 366.895 810.152C366.895 809.533 366.948 809.224 367.055 809.224H370.943ZM367.215 814.44V812.856H371.599V814.44H367.215ZM378.65 810.472C378.65 811.357 378.474 812.131 378.122 812.792C377.77 813.453 377.268 813.965 376.618 814.328C375.978 814.691 375.231 814.872 374.378 814.872H373.914L373.77 813.096H374.378C375.199 813.096 375.834 812.867 376.282 812.408C376.73 811.949 376.954 811.304 376.954 810.472V805.672H378.65V810.472ZM384.092 802.776L387.036 806.2C387.42 806.637 387.687 807.037 387.836 807.4C387.985 807.752 388.06 808.125 388.06 808.52C388.06 809.245 387.804 809.843 387.292 810.312C386.791 810.771 386.087 811 385.18 811H380.7L380.556 809.224H385.18C385.959 809.224 386.348 808.968 386.348 808.456C386.348 808.285 386.3 808.115 386.204 807.944C386.119 807.773 385.969 807.565 385.756 807.32L382.892 803.976L384.092 802.776ZM400.369 810.472C400.369 811.368 400.198 812.147 399.857 812.808C399.515 813.469 399.03 813.976 398.401 814.328C397.782 814.691 397.051 814.872 396.209 814.872H394.129L393.985 813.096H396.257C397.003 813.096 397.59 812.909 398.017 812.536C398.454 812.163 398.673 811.677 398.673 811.08V811H397.345C396.299 811 395.51 810.755 394.977 810.264C394.443 809.773 394.177 809.048 394.177 808.088V808.008C394.177 807.325 394.305 806.717 394.561 806.184C394.827 805.64 395.195 805.219 395.665 804.92C396.145 804.611 396.689 804.456 397.297 804.456C398.246 804.456 398.993 804.776 399.537 805.416C400.091 806.045 400.369 806.92 400.369 808.04V810.472ZM395.873 807.96C395.873 808.419 395.979 808.744 396.193 808.936C396.417 809.128 396.801 809.224 397.345 809.224H398.673V808.04C398.673 807.432 398.545 806.968 398.289 806.648C398.043 806.317 397.691 806.152 397.233 806.152C396.806 806.152 396.47 806.312 396.225 806.632C395.99 806.941 395.873 807.357 395.873 807.88V807.96ZM405.9 810.472C405.9 811.357 405.724 812.131 405.372 812.792C405.02 813.453 404.518 813.965 403.868 814.328C403.228 814.691 402.481 814.872 401.628 814.872H401.164L401.02 813.096H401.628C402.449 813.096 403.084 812.867 403.532 812.408C403.98 811.949 404.204 811.304 404.204 810.472V805.672H405.9V810.472ZM420.388 809.224C420.719 809.224 420.986 809.139 421.188 808.968C421.391 808.787 421.492 808.547 421.492 808.248V805.672H423.188V808.168C423.188 808.872 423.551 809.224 424.276 809.224H424.836C424.943 809.224 424.996 809.533 424.996 810.152C424.996 810.717 424.943 811 424.836 811H424.196C423.258 811 422.634 810.717 422.324 810.152C421.951 810.717 421.306 811 420.388 811H414.916C413.967 811 413.242 810.749 412.74 810.248C412.25 809.747 412.004 809.043 412.004 808.136V805.672H413.7V807.912C413.7 808.349 413.802 808.68 414.004 808.904C414.218 809.117 414.548 809.224 414.996 809.224H420.388ZM415.396 803.944V802.36H419.78V803.944H415.396ZM427.828 809.224C428.159 809.224 428.425 809.139 428.628 808.968C428.831 808.787 428.932 808.547 428.932 808.248V805.672H430.628V808.168C430.628 808.872 430.991 809.224 431.716 809.224H432.276C432.383 809.224 432.436 809.523 432.436 810.12C432.436 810.707 432.383 811 432.276 811H431.636C430.697 811 430.073 810.717 429.764 810.152C429.391 810.717 428.745 811 427.828 811H424.836C424.729 811 424.676 810.717 424.676 810.152C424.676 809.533 424.729 809.224 424.836 809.224H427.828ZM424.564 814.44V812.856H428.948V814.44H424.564ZM436.673 808.088C436.673 809.027 436.423 809.747 435.921 810.248C435.431 810.749 434.759 811 433.905 811H432.273C432.167 811 432.113 810.717 432.113 810.152C432.113 809.533 432.167 809.224 432.273 809.224H433.905C434.236 809.224 434.497 809.133 434.689 808.952C434.881 808.76 434.977 808.477 434.977 808.104V805.672H436.673V808.088ZM431.361 814.44V812.856H435.745V814.44H431.361ZM442.3 809.224C442.353 809.224 442.39 809.283 442.412 809.4C442.444 809.517 442.46 809.768 442.46 810.152C442.46 810.504 442.444 810.733 442.412 810.84C442.39 810.947 442.353 811 442.3 811H441.804C440.94 811 440.289 810.749 439.852 810.248C439.414 809.747 439.196 809.032 439.196 808.104V800.664H440.892V807.992C440.892 808.419 440.972 808.733 441.132 808.936C441.302 809.128 441.564 809.224 441.916 809.224H442.3ZM452.193 809.224C452.299 809.224 452.353 809.533 452.353 810.152C452.353 810.717 452.299 811 452.193 811C451.595 811 451.142 811.08 450.833 811.24C450.523 811.411 450.225 811.757 449.937 812.28L448.497 814.84H447.569C446.363 814.84 445.409 814.515 444.705 813.864C444.011 813.224 443.665 812.328 443.665 811.176V811H442.305C442.198 811 442.145 810.717 442.145 810.152C442.145 809.533 442.198 809.224 442.305 809.224H443.665V807.96C443.665 806.872 443.942 806.019 444.497 805.4C445.062 804.771 445.835 804.456 446.817 804.456C447.734 804.456 448.459 804.717 448.993 805.24C449.526 805.763 449.793 806.477 449.793 807.384C449.793 808.067 449.601 808.675 449.217 809.208C448.843 809.731 448.321 810.147 447.649 810.456C446.987 810.755 446.23 810.915 445.377 810.936V811.112C445.377 811.816 445.537 812.328 445.857 812.648C446.187 812.979 446.731 813.144 447.489 813.144H447.569L448.577 811.368C448.918 810.771 449.243 810.323 449.553 810.024C449.862 809.725 450.214 809.517 450.609 809.4C451.014 809.283 451.542 809.224 452.193 809.224ZM448.097 807.448C448.097 807.032 447.985 806.712 447.761 806.488C447.537 806.264 447.222 806.152 446.817 806.152C445.857 806.152 445.377 806.755 445.377 807.96V809.224C446.262 809.224 446.934 809.08 447.393 808.792C447.862 808.493 448.097 808.045 448.097 807.448ZM456.595 808.088C456.595 809.027 456.345 809.747 455.843 810.248C455.353 810.749 454.681 811 453.827 811H452.195C452.089 811 452.035 810.717 452.035 810.152C452.035 809.533 452.089 809.224 452.195 809.224H453.827C454.158 809.224 454.419 809.133 454.611 808.952C454.803 808.76 454.899 808.477 454.899 808.104V805.672H456.595V808.088ZM453.891 803.848V802.248H455.811V803.848H453.891ZM466.02 809.224C466.734 809.224 467.092 808.963 467.092 808.44C467.092 808.301 467.033 808.067 466.916 807.736L465.364 803.464L466.932 802.728L468.788 808.024C468.948 808.472 469.118 808.787 469.3 808.968C469.481 809.139 469.742 809.224 470.084 809.224H470.468C470.574 809.224 470.628 809.533 470.628 810.152C470.628 810.515 470.612 810.749 470.58 810.856C470.548 810.952 470.51 811 470.468 811H470.02C469.529 811 469.124 810.925 468.804 810.776C468.484 810.627 468.222 810.392 468.02 810.072C467.828 810.392 467.566 810.627 467.236 810.776C466.916 810.925 466.51 811 466.02 811H462.372L462.228 809.224H466.02ZM472.381 809.224C472.712 809.224 472.978 809.139 473.181 808.968C473.384 808.787 473.485 808.547 473.485 808.248V805.672H475.181V808.168C475.181 808.872 475.544 809.224 476.269 809.224H476.829C476.936 809.224 476.989 809.523 476.989 810.12C476.989 810.707 476.936 811 476.829 811H476.205C475.266 811 474.642 810.717 474.333 810.152C473.938 810.717 473.288 811 472.381 811H470.461C470.354 811 470.301 810.717 470.301 810.152C470.301 809.533 470.354 809.224 470.461 809.224H472.381ZM472.557 803.848V802.248H474.477V803.848H472.557ZM478.1 809.224C478.527 809.224 478.852 809.128 479.076 808.936C479.3 808.733 479.412 808.456 479.412 808.104V805.672H481.108V808.104C481.108 808.851 481.54 809.224 482.404 809.224C482.831 809.224 483.156 809.128 483.38 808.936C483.604 808.733 483.716 808.456 483.716 808.104V805.672H485.412V808.104C485.412 808.851 485.812 809.224 486.612 809.224C487.017 809.224 487.321 809.128 487.524 808.936C487.727 808.744 487.828 808.467 487.828 808.104V805.672H489.54V808.088C489.54 809.005 489.279 809.72 488.756 810.232C488.244 810.744 487.529 811 486.612 811C485.524 811 484.815 810.691 484.484 810.072C484.068 810.691 483.375 811 482.404 811C481.796 811 481.316 810.925 480.964 810.776C480.612 810.616 480.356 810.381 480.196 810.072C479.78 810.691 479.081 811 478.1 811H476.836C476.729 811 476.676 810.717 476.676 810.152C476.676 809.533 476.729 809.224 476.836 809.224H478.1ZM492.919 811C492.556 811 492.295 810.909 492.135 810.728C491.975 810.547 491.895 810.264 491.895 809.88C491.895 809.496 491.975 809.224 492.135 809.064C492.295 808.893 492.556 808.808 492.919 808.808C493.282 808.808 493.543 808.893 493.703 809.064C493.863 809.224 493.943 809.496 493.943 809.88C493.943 810.264 493.858 810.547 493.687 810.728C493.527 810.909 493.271 811 492.919 811ZM499.533 806.296C499.021 806.296 498.669 806.189 498.477 805.976V806.824V811H496.781V806.856C496.781 805.811 496.728 804.909 496.621 804.152C496.515 803.384 496.301 802.467 495.981 801.4L497.613 800.824L498.333 803.624C498.483 804.221 498.84 804.52 499.405 804.52C499.683 804.52 499.917 804.435 500.109 804.264C500.312 804.093 500.413 803.869 500.413 803.592C500.413 803.24 500.307 802.44 500.093 801.192L501.789 800.824C502.003 802.019 502.109 802.963 502.109 803.656C502.109 803.752 502.099 803.896 502.077 804.088C502.301 804.376 502.611 804.52 503.005 804.52C503.283 804.52 503.517 804.435 503.709 804.264C503.901 804.093 503.997 803.869 503.997 803.592C503.997 803.24 503.891 802.44 503.677 801.192L505.389 800.824C505.603 802.104 505.709 803.048 505.709 803.656C505.709 804.157 505.597 804.611 505.373 805.016C505.149 805.421 504.84 805.736 504.445 805.96C504.061 806.184 503.624 806.296 503.133 806.296C502.771 806.296 502.429 806.232 502.109 806.104C501.789 805.965 501.539 805.789 501.357 805.576C500.856 806.056 500.248 806.296 499.533 806.296Z" fill="black"/>
<g filter="url(#filter3_d_3_5)">
<rect x="1139" y="257" width="160" height="163" rx="15" fill="white"/>
</g>
<g filter="url(#filter4_d_3_5)">
<rect x="219" y="307" width="160" height="163" rx="15" fill="white"/>
</g>
<defs>
<filter id="filter0_d_3_5" x="336" y="636" width="150" height="150" filterUnits="userSpaceOnUse" color-interpolation-filters="sRGB">
<feFlood flood-opacity="0" result="BackgroundImageFix"/>
<feColorMatrix in="SourceAlpha" type="matrix" values="0 0 0 0 0 0 0 0 0 0 0 0 0 0 0 0 0 0 127 0" result="hardAlpha"/>
<feOffset/>
<feGaussianBlur stdDeviation="7.5"/>
<feComposite in2="hardAlpha" operator="out"/>
<feColorMatrix type="matrix" values="0 0 0 0 0 0 0 0 0 0 0 0 0 0 0 0 0 0 0.1 0"/>
<feBlend mode="normal" in2="BackgroundImageFix" result="effect1_dropShadow_3_5"/>
<feBlend mode="normal" in="SourceGraphic" in2="effect1_dropShadow_3_5" result="shape"/>
</filter>
<filter id="filter1_d_3_5" x="681" y="636" width="150" height="150" filterUnits="userSpaceOnUse" color-interpolation-filters="sRGB">
<feFlood flood-opacity="0" result="BackgroundImageFix"/>
<feColorMatrix in="SourceAlpha" type="matrix" values="0 0 0 0 0 0 0 0 0 0 0 0 0 0 0 0 0 0 127 0" result="hardAlpha"/>
<feOffset/>
<feGaussianBlur stdDeviation="7.5"/>
<feComposite in2="hardAlpha" operator="out"/>
<feColorMatrix type="matrix" values="0 0 0 0 0 0 0 0 0 0 0 0 0 0 0 0 0 0 0.1 0"/>
<feBlend mode="normal" in2="BackgroundImageFix" result="effect1_dropShadow_3_5"/>
<feBlend mode="normal" in="SourceGraphic" in2="effect1_dropShadow_3_5" result="shape"/>
</filter>
<filter id="filter2_d_3_5" x="1026" y="636" width="150" height="150" filterUnits="userSpaceOnUse" color-interpolation-filters="sRGB">
<feFlood flood-opacity="0" result="BackgroundImageFix"/>
<feColorMatrix in="SourceAlpha" type="matrix" values="0 0 0 0 0 0 0 0 0 0 0 0 0 0 0 0 0 0 127 0" result="hardAlpha"/>
<feOffset/>
<feGaussianBlur stdDeviation="7.5"/>
<feComposite in2="hardAlpha" operator="out"/>
<feColorMatrix type="matrix" values="0 0 0 0 0 0 0 0 0 0 0 0 0 0 0 0 0 0 0.1 0"/>
<feBlend mode="normal" in2="BackgroundImageFix" result="effect1_dropShadow_3_5"/>
<feBlend mode="normal" in="SourceGraphic" in2="effect1_dropShadow_3_5" result="shape"/>
</filter>
<filter id="filter3_d_3_5" x="1124" y="242" width="190" height="193" filterUnits="userSpaceOnUse" color-interpolation-filters="sRGB">
<feFlood flood-opacity="0" result="BackgroundImageFix"/>
<feColorMatrix in="SourceAlpha" type="matrix" values="0 0 0 0 0 0 0 0 0 0 0 0 0 0 0 0 0 0 127 0" result="hardAlpha"/>
<feOffset/>
<feGaussianBlur stdDeviation="7.5"/>
<feComposite in2="hardAlpha" operator="out"/>
<feColorMatrix type="matrix" values="0 0 0 0 0 0 0 0 0 0 0 0 0 0 0 0 0 0 0.1 0"/>
<feBlend mode="normal" in2="BackgroundImageFix" result="effect1_dropShadow_3_5"/>
<feBlend mode="normal" in="SourceGraphic" in2="effect1_dropShadow_3_5" result="shape"/>
</filter>
<filter id="filter4_d_3_5" x="204" y="292" width="190" height="193" filterUnits="userSpaceOnUse" color-interpolation-filters="sRGB">
<feFlood flood-opacity="0" result="BackgroundImageFix"/>
<feColorMatrix in="SourceAlpha" type="matrix" values="0 0 0 0 0 0 0 0 0 0 0 0 0 0 0 0 0 0 127 0" result="hardAlpha"/>
<feOffset/>
<feGaussianBlur stdDeviation="7.5"/>
<feComposite in2="hardAlpha" operator="out"/>
<feColorMatrix type="matrix" values="0 0 0 0 0 0 0 0 0 0 0 0 0 0 0 0 0 0 0.1 0"/>
<feBlend mode="normal" in2="BackgroundImageFix" result="effect1_dropShadow_3_5"/>
<feBlend mode="normal" in="SourceGraphic" in2="effect1_dropShadow_3_5" result="shape"/>
</filter>
</defs>
</svg>
