<svg width="20" height="20" viewBox="0 0 20 20" fill="none" xmlns="http://www.w3.org/2000/svg">
<path d="M14.8248 18.9583H5.17484C2.8915 18.9583 1.0415 17.1 1.0415 14.8167V8.64166C1.0415 7.50833 1.7415 6.08333 2.6415 5.38333L7.13317 1.88333C8.48317 0.833332 10.6415 0.783332 12.0415 1.76667L17.1915 5.375C18.1832 6.06666 18.9582 7.55 18.9582 8.75833V14.825C18.9582 17.1 17.1082 18.9583 14.8248 18.9583ZM7.89984 2.86667L3.40817 6.36666C2.8165 6.83333 2.2915 7.89166 2.2915 8.64166V14.8167C2.2915 16.4083 3.58317 17.7083 5.17484 17.7083H14.8248C16.4165 17.7083 17.7082 16.4167 17.7082 14.825V8.75833C17.7082 7.95833 17.1332 6.85 16.4748 6.4L11.3248 2.79167C10.3748 2.125 8.80817 2.15833 7.89984 2.86667Z" fill="white"/>
<path d="M10 15.625C9.65833 15.625 9.375 15.3417 9.375 15V12.5C9.375 12.1583 9.65833 11.875 10 11.875C10.3417 11.875 10.625 12.1583 10.625 12.5V15C10.625 15.3417 10.3417 15.625 10 15.625Z" fill="white"/>
</svg>
