<svg width="18" height="12" viewBox="0 0 18 12" fill="none" xmlns="http://www.w3.org/2000/svg">
<path d="M2.00016 0.166626H7.8335C8.14292 0.166626 8.43966 0.289542 8.65845 0.508335C8.87725 0.727127 9.00016 1.02387 9.00016 1.33329C9.00016 1.64271 8.87725 1.93946 8.65845 2.15825C8.43966 2.37704 8.14292 2.49996 7.8335 2.49996H2.00016C1.69074 2.49996 1.394 2.37704 1.1752 2.15825C0.956412 1.93946 0.833496 1.64271 0.833496 1.33329C0.833496 1.02387 0.956412 0.727127 1.1752 0.508335C1.394 0.289542 1.69074 0.166626 2.00016 0.166626ZM10.1668 9.49996H16.0002C16.3096 9.49996 16.6063 9.62288 16.8251 9.84167C17.0439 10.0605 17.1668 10.3572 17.1668 10.6666C17.1668 10.976 17.0439 11.2728 16.8251 11.4916C16.6063 11.7104 16.3096 11.8333 16.0002 11.8333H10.1668C9.85741 11.8333 9.56067 11.7104 9.34187 11.4916C9.12308 11.2728 9.00016 10.976 9.00016 10.6666C9.00016 10.3572 9.12308 10.0605 9.34187 9.84167C9.56067 9.62288 9.85741 9.49996 10.1668 9.49996ZM2.00016 4.83329H16.0002C16.3096 4.83329 16.6063 4.95621 16.8251 5.175C17.0439 5.39379 17.1668 5.69054 17.1668 5.99996C17.1668 6.30938 17.0439 6.60612 16.8251 6.82492C16.6063 7.04371 16.3096 7.16663 16.0002 7.16663H2.00016C1.69074 7.16663 1.394 7.04371 1.1752 6.82492C0.956412 6.60612 0.833496 6.30938 0.833496 5.99996C0.833496 5.69054 0.956412 5.39379 1.1752 5.175C1.394 4.95621 1.69074 4.83329 2.00016 4.83329Z" fill="white"/>
</svg>
