<svg width="60" height="40" viewBox="0 0 60 40" fill="none" xmlns="http://www.w3.org/2000/svg">
<circle cx="20" cy="20" r="20" fill="#E9EEFB"/>
<path d="M45 37.9167H35C25.95 37.9167 22.0834 34.05 22.0834 25V15C22.0834 5.95004 25.95 2.08337 35 2.08337H43.3334C44.0167 2.08337 44.5834 2.65004 44.5834 3.33337C44.5834 4.01671 44.0167 4.58337 43.3334 4.58337H35C27.3167 4.58337 24.5834 7.31671 24.5834 15V25C24.5834 32.6834 27.3167 35.4167 35 35.4167H45C52.6834 35.4167 55.4167 32.6834 55.4167 25V16.6667C55.4167 15.9834 55.9834 15.4167 56.6667 15.4167C57.35 15.4167 57.9167 15.9834 57.9167 16.6667V25C57.9167 34.05 54.05 37.9167 45 37.9167Z" fill="#2556DA"/>
<path d="M56.6667 17.9167H50C44.3 17.9167 42.0834 15.7 42.0834 10V3.33336C42.0834 2.83336 42.3834 2.36669 42.85 2.18336C43.3167 1.98336 43.85 2.10002 44.2167 2.45002L57.55 15.7834C57.9 16.1334 58.0167 16.6834 57.8167 17.15C57.6167 17.6167 57.1667 17.9167 56.6667 17.9167ZM44.5834 6.35002V10C44.5834 14.3 45.7 15.4167 50 15.4167H53.65L44.5834 6.35002Z" fill="#2556DA"/>
<path d="M35.7 31.5833C34.25 31.5833 30.8833 29.8166 29.85 26.5833C29.1333 24.35 29.9667 21.4333 32.55 20.6C33.6333 20.25 34.7833 20.4 35.7 20.9666C36.6 20.4 37.7667 20.25 38.8667 20.6C41.45 21.4333 42.2833 24.35 41.5667 26.5833C40.5167 29.8833 36.9833 31.5833 35.7 31.5833ZM32.2167 25.8333C32.9167 28.0166 35.2833 29.05 35.7167 29.0833C36.1833 29.0333 38.5167 27.8833 39.1667 25.8333C39.5167 24.7333 39.1667 23.3333 38.0833 22.9833C37.6333 22.8333 37.0167 22.9166 36.7333 23.35C36.5 23.7 36.1333 23.9 35.7167 23.9166C35.2667 23.9166 34.9167 23.7333 34.6833 23.4C34.3333 22.9166 33.7333 22.85 33.3 23C32.2333 23.3333 31.8667 24.7333 32.2167 25.8333Z" fill="#2556DA"/>
</svg>
