<svg width="19" height="19" viewBox="0 0 19 19" fill="none" xmlns="http://www.w3.org/2000/svg">
<path d="M11.93 17.2025H11.8325C8.50251 17.2025 6.89751 15.89 6.62001 12.95C6.59001 12.6425 6.81501 12.365 7.13001 12.335C7.43751 12.305 7.71501 12.5375 7.74501 12.845C7.96251 15.2 9.07251 16.0775 11.84 16.0775H11.9375C14.99 16.0775 16.07 14.9975 16.07 11.945V7.055C16.07 4.0025 14.99 2.9225 11.9375 2.9225H11.84C9.05751 2.9225 7.94751 3.815 7.74501 6.215C7.70751 6.5225 7.45251 6.755 7.13001 6.725C6.81501 6.7025 6.59001 6.425 6.61251 6.1175C6.86751 3.1325 8.48001 1.7975 11.8325 1.7975H11.93C15.6125 1.7975 17.1875 3.3725 17.1875 7.055V11.945C17.1875 15.6275 15.6125 17.2025 11.93 17.2025Z" fill="white"/>
<path d="M11.66 10.0625H2C1.6925 10.0625 1.4375 9.8075 1.4375 9.5C1.4375 9.1925 1.6925 8.9375 2 8.9375H11.66C11.9675 8.9375 12.2225 9.1925 12.2225 9.5C12.2225 9.8075 11.975 10.0625 11.66 10.0625Z" fill="white"/>
<path d="M9.9875 12.575C9.845 12.575 9.7025 12.5225 9.59 12.41C9.3725 12.1925 9.3725 11.8325 9.59 11.615L11.705 9.5L9.59 7.385C9.3725 7.1675 9.3725 6.8075 9.59 6.59C9.8075 6.3725 10.1675 6.3725 10.385 6.59L12.8975 9.1025C13.115 9.32 13.115 9.68 12.8975 9.8975L10.385 12.41C10.2725 12.5225 10.13 12.575 9.9875 12.575Z" fill="white"/>
</svg>
