<svg width="20" height="21" viewBox="0 0 20 21" fill="none" xmlns="http://www.w3.org/2000/svg">
<path d="M12.5001 19.4583H7.50008C2.97508 19.4583 1.04175 17.525 1.04175 13V7.99999C1.04175 3.47499 2.97508 1.54166 7.50008 1.54166H11.6667C12.0084 1.54166 12.2917 1.82499 12.2917 2.16666C12.2917 2.50832 12.0084 2.79166 11.6667 2.79166H7.50008C3.65841 2.79166 2.29175 4.15832 2.29175 7.99999V13C2.29175 16.8417 3.65841 18.2083 7.50008 18.2083H12.5001C16.3417 18.2083 17.7084 16.8417 17.7084 13V8.83332C17.7084 8.49166 17.9917 8.20832 18.3334 8.20832C18.6751 8.20832 18.9584 8.49166 18.9584 8.83332V13C18.9584 17.525 17.0251 19.4583 12.5001 19.4583Z" fill="#2556DA"/>
<path d="M18.3334 9.45834H15.0001C12.1501 9.45834 11.0417 8.35001 11.0417 5.50001V2.16668C11.0417 1.91668 11.1917 1.68334 11.4251 1.59168C11.6584 1.49168 11.9251 1.55001 12.1084 1.72501L18.7751 8.39168C18.9501 8.56668 19.0084 8.84168 18.9084 9.07501C18.8084 9.30834 18.5834 9.45834 18.3334 9.45834ZM12.2917 3.67501V5.50001C12.2917 7.65001 12.8501 8.20834 15.0001 8.20834H16.8251L12.2917 3.67501Z" fill="#2556DA"/>
<path d="M7.85005 16.2917C7.12505 16.2917 5.44172 15.4083 4.92505 13.7917C4.56672 12.675 4.98339 11.2167 6.27505 10.8C6.81672 10.625 7.39172 10.7 7.85005 10.9833C8.30005 10.7 8.88339 10.625 9.43339 10.8C10.7251 11.2167 11.1417 12.675 10.7834 13.7917C10.2584 15.4417 8.49172 16.2917 7.85005 16.2917ZM6.10839 13.4167C6.45839 14.5083 7.64172 15.025 7.85839 15.0417C8.09172 15.0167 9.25839 14.4417 9.58339 13.4167C9.75839 12.8667 9.58339 12.1667 9.04172 11.9917C8.81672 11.9167 8.50839 11.9583 8.36672 12.175C8.25005 12.35 8.06672 12.45 7.85839 12.4583C7.63339 12.4583 7.45839 12.3667 7.34172 12.2C7.16672 11.9583 6.86672 11.925 6.65005 12C6.11672 12.1667 5.93339 12.8667 6.10839 13.4167Z" fill="#2556DA"/>
</svg>
