<svg width="23" height="23" viewBox="0 0 23 23" fill="none" xmlns="http://www.w3.org/2000/svg">
<g clip-path="url(#clip0_12_185)">
<path fill-rule="evenodd" clip-rule="evenodd" d="M7.1324 13.735C7.03874 13.0427 6.91955 11.9922 6.89499 11.3144C6.8338 9.43431 7.02084 6.75277 8.08425 5.12048C10.3812 1.5974 15.2363 3.91319 14.5041 8.10062C13.9595 11.2153 11.8085 13.0666 9.73527 15.1397C10.8422 19.0141 12.3996 12.0708 14.7648 11.9951C16.8024 11.9303 18.3042 16.5829 15.6197 19.2915C15.8702 17.4165 15.4441 14.6926 14.6628 14.6169C13.9375 14.5465 10.2653 23.2087 7.79467 16.439C6.81535 17.0177 4.67411 17.7427 2.69674 18.0968C4.70339 20.7703 7.89957 22.5 11.4999 22.5C17.5751 22.5 22.4999 17.5752 22.4999 11.5001C22.4999 5.4249 17.5751 0.5 11.4999 0.5C5.42476 0.5 0.5 5.42476 0.5 11.4999C0.5 13.4998 1.03378 15.3748 1.96634 16.9908L0.8004 18.046C1.24386 17.8966 1.73046 17.6901 2.24121 17.4413C4.71005 16.2386 7.74472 14.0481 9.25837 12.537C10.5191 11.2792 11.9613 9.50383 12.2735 7.71683C12.6201 5.73488 10.5259 4.62235 9.66562 7.01182C9.26129 8.13503 9.1081 9.67533 9.15903 11.2398C9.16 11.2717 9.22452 12.2151 9.20468 11.9825C8.57377 12.6335 7.87847 13.2212 7.13254 13.7348" fill="#2556DA"/>
</g>
<defs>
<clipPath id="clip0_12_185">
<rect width="22" height="22" fill="white" transform="translate(0.5 0.5)"/>
</clipPath>
</defs>
</svg>
