<svg width="20" height="20" viewBox="0 0 20 20" fill="none" xmlns="http://www.w3.org/2000/svg">
<path d="M9.99984 13.9583C9.6665 13.9583 9.33317 13.9333 9.0165 13.875C7.24984 13.6167 5.6415 12.6 4.62484 11.0917C3.9165 10.025 3.5415 8.78332 3.5415 7.49999C3.5415 3.94166 6.4415 1.04166 9.99984 1.04166C13.5582 1.04166 16.4582 3.94166 16.4582 7.49999C16.4582 8.78332 16.0832 10.025 15.3748 11.0917C14.3498 12.6083 12.7415 13.6167 10.9582 13.8833C10.6665 13.9333 10.3332 13.9583 9.99984 13.9583ZM9.99984 2.29166C7.12484 2.29166 4.7915 4.62499 4.7915 7.49999C4.7915 8.54166 5.0915 9.54166 5.65817 10.3917C6.48317 11.6083 7.77484 12.425 9.20817 12.6333C9.7415 12.725 10.2665 12.725 10.7582 12.6333C12.2165 12.425 13.5082 11.6 14.3332 10.3833C14.8998 9.53332 15.1998 8.53331 15.1998 7.49165C15.2082 4.62498 12.8748 2.29166 9.99984 2.29166Z" fill="white"/>
<path d="M5.3916 18.825C5.27493 18.825 5.1666 18.8083 5.04993 18.7833C4.50826 18.6583 4.0916 18.2416 3.9666 17.7L3.67493 16.475C3.65826 16.4 3.59993 16.3416 3.5166 16.3166L2.1416 15.9917C1.62493 15.8667 1.2166 15.4833 1.07493 14.975C0.933263 14.4667 1.07493 13.9167 1.44993 13.5417L4.69993 10.2917C4.83326 10.1583 5.0166 10.0917 5.19993 10.1083C5.38326 10.125 5.54993 10.225 5.65826 10.3833C6.48326 11.6 7.77493 12.425 9.2166 12.6333C9.74993 12.725 10.2749 12.725 10.7666 12.6333C12.2249 12.425 13.5166 11.6 14.3416 10.3833C14.4416 10.225 14.6166 10.125 14.7999 10.1083C14.9833 10.0917 15.1666 10.1583 15.2999 10.2917L18.5499 13.5417C18.9249 13.9167 19.0666 14.4667 18.9249 14.975C18.7833 15.4833 18.3666 15.875 17.8583 15.9917L16.4833 16.3166C16.4083 16.3333 16.3499 16.3916 16.3249 16.475L16.0333 17.7C15.9083 18.2416 15.4916 18.6583 14.9499 18.7833C14.4083 18.9167 13.8499 18.725 13.4999 18.3L9.99993 14.275L6.49993 18.3083C6.2166 18.6417 5.8166 18.825 5.3916 18.825ZM5.07493 11.6916L2.33326 14.4333C2.25826 14.5083 2.2666 14.5917 2.28326 14.6417C2.2916 14.6833 2.33326 14.7666 2.43326 14.7833L3.80826 15.1083C4.34993 15.2333 4.7666 15.65 4.8916 16.1916L5.18326 17.4166C5.20826 17.525 5.2916 17.5583 5.3416 17.575C5.3916 17.5833 5.47493 17.5917 5.54993 17.5083L8.7416 13.8333C7.32493 13.5583 6.02493 12.8 5.07493 11.6916ZM11.2583 13.825L14.4499 17.4916C14.5249 17.5833 14.6166 17.5833 14.6666 17.5666C14.7166 17.5583 14.7916 17.5167 14.8249 17.4083L15.1166 16.1833C15.2416 15.6417 15.6583 15.225 16.1999 15.1L17.5749 14.775C17.6749 14.75 17.7166 14.675 17.7249 14.6333C17.7416 14.5916 17.7499 14.5 17.6749 14.425L14.9333 11.6833C13.9749 12.7916 12.6833 13.55 11.2583 13.825Z" fill="white"/>
<path d="M11.5753 10.7417C11.3586 10.7417 11.1003 10.6833 10.7919 10.5L10.0003 10.025L9.20861 10.4917C8.48361 10.925 8.00861 10.675 7.83361 10.55C7.65861 10.425 7.28361 10.05 7.47528 9.225L7.67528 8.36666L7.00861 7.74998C6.64195 7.38331 6.50861 6.94166 6.63361 6.54166C6.75861 6.14166 7.12528 5.85832 7.64195 5.77498L8.53361 5.62499L8.95861 4.69166C9.20028 4.21666 9.57528 3.94998 10.0003 3.94998C10.4253 3.94998 10.8086 4.225 11.0419 4.7L11.5336 5.68333L12.3586 5.78333C12.8669 5.86666 13.2336 6.14998 13.3669 6.54998C13.4919 6.94998 13.3586 7.39165 12.9919 7.75832L12.3003 8.45L12.5169 9.225C12.7086 10.05 12.3336 10.425 12.1586 10.55C12.0669 10.625 11.8669 10.7417 11.5753 10.7417ZM8.00861 6.99167L8.58361 7.56665C8.85028 7.83331 8.98361 8.28333 8.90028 8.64999L8.74195 9.31665L9.40861 8.92498C9.76695 8.71665 10.2503 8.71665 10.6003 8.92498L11.2669 9.31665L11.1169 8.64999C11.0336 8.27499 11.1586 7.83331 11.4253 7.56665L12.0003 6.99167L11.2753 6.86665C10.9253 6.80832 10.5753 6.55 10.4169 6.23333L10.0003 5.41666L9.58361 6.24999C9.43361 6.55832 9.08361 6.825 8.73361 6.88333L8.00861 6.99167Z" fill="white"/>
</svg>
