<svg width="20" height="20" viewBox="0 0 20 20" fill="none" xmlns="http://www.w3.org/2000/svg">
<path d="M12.25 18.9583H7.74997C3.6333 18.9583 1.8833 17.2 1.8833 13.0917V9.35001C1.8833 9.00834 2.16663 8.72501 2.5083 8.72501C2.84997 8.72501 3.1333 9.00834 3.1333 9.35001V13.0917C3.1333 16.5 4.34163 17.7083 7.74997 17.7083H12.2416C15.65 17.7083 16.8583 16.5 16.8583 13.0917V9.35001C16.8583 9.00834 17.1416 8.72501 17.4833 8.72501C17.825 8.72501 18.1083 9.00834 18.1083 9.35001V13.0917C18.1166 17.2 16.3583 18.9583 12.25 18.9583Z" fill="white"/>
<path d="M10.0002 10.625C9.0835 10.625 8.25016 10.2667 7.6585 9.60832C7.06683 8.94999 6.79183 8.09166 6.8835 7.17499L7.44183 1.60832C7.47516 1.29166 7.74183 1.04166 8.06683 1.04166H11.9585C12.2835 1.04166 12.5502 1.28332 12.5835 1.60832L13.1418 7.17499C13.2335 8.09166 12.9585 8.94999 12.3668 9.60832C11.7502 10.2667 10.9168 10.625 10.0002 10.625ZM8.62516 2.29166L8.12516 7.29999C8.06683 7.85832 8.2335 8.38332 8.5835 8.76666C9.29183 9.54999 10.7085 9.54999 11.4168 8.76666C11.7668 8.37499 11.9335 7.84999 11.8752 7.29999L11.3752 2.29166H8.62516Z" fill="white"/>
<path d="M15.2585 10.625C13.5668 10.625 12.0585 9.25832 11.8835 7.57499L11.3002 1.73332C11.2835 1.55832 11.3418 1.38332 11.4585 1.24999C11.5752 1.11666 11.7418 1.04166 11.9252 1.04166H14.4668C16.9168 1.04166 18.0585 2.06666 18.4002 4.58332L18.6335 6.89999C18.7335 7.88332 18.4335 8.81666 17.7918 9.52499C17.1502 10.2333 16.2502 10.625 15.2585 10.625ZM12.6168 2.29166L13.1335 7.44999C13.2418 8.49166 14.2085 9.37499 15.2585 9.37499C15.8918 9.37499 16.4585 9.13332 16.8668 8.69166C17.2668 8.24999 17.4502 7.65832 17.3918 7.02499L17.1585 4.73332C16.9002 2.84999 16.2918 2.29166 14.4668 2.29166H12.6168Z" fill="white"/>
<path d="M4.70002 10.625C3.70835 10.625 2.80835 10.2333 2.16668 9.52499C1.52502 8.81666 1.22502 7.88332 1.32502 6.89999L1.55002 4.60832C1.90002 2.06666 3.04168 1.04166 5.49168 1.04166H8.03335C8.20835 1.04166 8.37502 1.11666 8.50002 1.24999C8.62502 1.38332 8.67502 1.55832 8.65835 1.73332L8.07502 7.57499C7.90002 9.25832 6.39168 10.625 4.70002 10.625ZM5.49168 2.29166C3.66668 2.29166 3.05835 2.84166 2.79168 4.74999L2.56668 7.02499C2.50002 7.65832 2.69168 8.24999 3.09168 8.69166C3.49168 9.13332 4.05835 9.37499 4.70002 9.37499C5.75002 9.37499 6.72502 8.49166 6.82502 7.44999L7.34168 2.29166H5.49168Z" fill="white"/>
<path d="M12.0832 18.9583H7.9165C7.57484 18.9583 7.2915 18.675 7.2915 18.3333V16.25C7.2915 14.5 8.24984 13.5417 9.99984 13.5417C11.7498 13.5417 12.7082 14.5 12.7082 16.25V18.3333C12.7082 18.675 12.4248 18.9583 12.0832 18.9583ZM8.5415 17.7083H11.4582V16.25C11.4582 15.2 11.0498 14.7917 9.99984 14.7917C8.94984 14.7917 8.5415 15.2 8.5415 16.25V17.7083Z" fill="white"/>
</svg>
