<svg width="41" height="40" viewBox="0 0 41 40" fill="none" xmlns="http://www.w3.org/2000/svg">
<path d="M20.5 27.9167C19.8333 27.9167 19.1667 27.8667 18.5333 27.75C15 27.2334 11.7833 25.2 9.75001 22.1834C8.33334 20.05 7.58334 17.5667 7.58334 15C7.58334 7.88337 13.3833 2.08337 20.5 2.08337C27.6167 2.08337 33.4167 7.88337 33.4167 15C33.4167 17.5667 32.6667 20.05 31.25 22.1834C29.2 25.2167 25.9833 27.2334 22.4167 27.7667C21.8333 27.8667 21.1667 27.9167 20.5 27.9167ZM20.5 4.58337C14.75 4.58337 10.0833 9.25004 10.0833 15C10.0833 17.0834 10.6833 19.0834 11.8167 20.7834C13.4667 23.2167 16.05 24.85 18.9167 25.2667C19.9833 25.45 21.0333 25.45 22.0167 25.2667C24.9333 24.85 27.5167 23.2 29.1667 20.7667C30.3 19.0667 30.9 17.0667 30.9 14.9834C30.9167 9.25002 26.25 4.58337 20.5 4.58337Z" fill="#2556DA"/>
<path d="M11.283 37.6499C11.0497 37.6499 10.833 37.6166 10.5997 37.5666C9.51637 37.3166 8.68304 36.4832 8.43304 35.3999L7.84971 32.9499C7.81637 32.7999 7.69971 32.6832 7.53304 32.6332L4.78304 31.9832C3.74971 31.7332 2.93304 30.9666 2.64971 29.9499C2.36637 28.9332 2.64971 27.8332 3.39971 27.0832L9.89971 20.5833C10.1664 20.3166 10.533 20.1832 10.8997 20.2166C11.2664 20.2499 11.5997 20.4499 11.8164 20.7666C13.4664 23.1999 16.0497 24.8499 18.933 25.2666C19.9997 25.4499 21.0497 25.4499 22.033 25.2666C24.9497 24.8499 27.533 23.1999 29.183 20.7666C29.383 20.4499 29.733 20.2499 30.0997 20.2166C30.4664 20.1832 30.833 20.3166 31.0997 20.5833L37.5997 27.0832C38.3497 27.8332 38.633 28.9332 38.3497 29.9499C38.0664 30.9666 37.233 31.7499 36.2164 31.9832L33.4664 32.6332C33.3164 32.6666 33.1997 32.7832 33.1497 32.9499L32.5664 35.3999C32.3164 36.4832 31.483 37.3166 30.3997 37.5666C29.3164 37.8333 28.1997 37.4499 27.4997 36.5999L20.4997 28.5499L13.4997 36.6166C12.933 37.2832 12.133 37.6499 11.283 37.6499ZM10.6497 23.3832L5.16637 28.8666C5.01637 29.0166 5.03304 29.1833 5.06637 29.2833C5.08304 29.3666 5.16637 29.5332 5.36637 29.5666L8.11637 30.2166C9.19971 30.4666 10.033 31.2999 10.283 32.3832L10.8664 34.8332C10.9164 35.0499 11.083 35.1166 11.183 35.1499C11.283 35.1666 11.4497 35.1833 11.5997 35.0166L17.983 27.6666C15.1497 27.1166 12.5497 25.5999 10.6497 23.3832ZM23.0164 27.6499L29.3997 34.9832C29.5497 35.1666 29.733 35.1666 29.833 35.1332C29.933 35.1166 30.083 35.0333 30.1497 34.8166L30.733 32.3666C30.983 31.2833 31.8164 30.4499 32.8997 30.1999L35.6497 29.5499C35.8497 29.4999 35.933 29.3499 35.9497 29.2666C35.983 29.1832 35.9997 28.9999 35.8497 28.8499L30.3664 23.3666C28.4497 25.5832 25.8664 27.0999 23.0164 27.6499Z" fill="#2556DA"/>
<path d="M23.6502 21.4834C23.2169 21.4834 22.7002 21.3667 22.0836 21.0001L20.5002 20.05L18.9169 20.9834C17.4669 21.85 16.5169 21.35 16.1669 21.1C15.8169 20.85 15.0669 20.1001 15.4502 18.4501L15.8502 16.7334L14.5169 15.5C13.7836 14.7667 13.5169 13.8834 13.7669 13.0834C14.0169 12.2834 14.7502 11.7167 15.7836 11.55L17.5669 11.25L18.4169 9.38338C18.9002 8.43338 19.6502 7.90002 20.5002 7.90002C21.3502 7.90002 22.1169 8.45007 22.5836 9.40007L23.5669 11.3667L25.2169 11.5667C26.2336 11.7334 26.9669 12.3 27.2336 13.1C27.4836 13.9 27.2169 14.7834 26.4836 15.5167L25.1002 16.9001L25.5336 18.4501C25.9169 20.1001 25.1669 20.85 24.8169 21.1C24.6336 21.25 24.2336 21.4834 23.6502 21.4834ZM16.5169 13.9834L17.6669 15.1334C18.2002 15.6667 18.4669 16.5667 18.3002 17.3L17.9836 18.6334L19.3169 17.85C20.0336 17.4334 21.0002 17.4334 21.7002 17.85L23.0336 18.6334L22.7336 17.3C22.5669 16.55 22.8169 15.6667 23.3502 15.1334L24.5002 13.9834L23.0502 13.7334C22.3502 13.6167 21.6502 13.1001 21.3336 12.4667L20.5002 10.8334L19.6669 12.5C19.3669 13.1167 18.6669 13.6501 17.9669 13.7667L16.5169 13.9834Z" fill="#2556DA"/>
</svg>
