<svg width="20" height="20" viewBox="0 0 20 20" fill="none" xmlns="http://www.w3.org/2000/svg">
<path d="M5.83331 17.7083H14.1666C17.2083 17.7083 18.9583 15.9583 18.9583 12.9166V7.08329C18.9583 4.04163 17.2083 2.29163 14.1666 2.29163H5.83331C2.79165 2.29163 1.04165 4.04163 1.04165 7.08329V12.9166C1.04165 15.9583 2.79165 17.7083 5.83331 17.7083ZM14.1666 3.54163C16.55 3.54163 17.7083 4.69996 17.7083 7.08329V12.9166C17.7083 15.3 16.55 16.4583 14.1666 16.4583H5.83331C3.44998 16.4583 2.29165 15.3 2.29165 12.9166V7.08329C2.29165 4.69996 3.44998 3.54163 5.83331 3.54163H14.1666Z" fill="#040404"/>
<path d="M10 13.125C11.725 13.125 13.125 11.725 13.125 10C13.125 8.275 11.725 6.875 10 6.875C8.275 6.875 6.875 8.275 6.875 10C6.875 11.725 8.275 13.125 10 13.125ZM10 8.125C11.0333 8.125 11.875 8.96667 11.875 10C11.875 11.0333 11.0333 11.875 10 11.875C8.96667 11.875 8.125 11.0333 8.125 10C8.125 8.96667 8.96667 8.125 10 8.125Z" fill="#040404"/>
<path d="M15.4167 12.7083C15.7584 12.7083 16.0417 12.425 16.0417 12.0833V7.91663C16.0417 7.57496 15.7584 7.29163 15.4167 7.29163C15.075 7.29163 14.7917 7.57496 14.7917 7.91663V12.0833C14.7917 12.425 15.075 12.7083 15.4167 12.7083Z" fill="#040404"/>
<path d="M4.58331 12.7083C4.92498 12.7083 5.20831 12.425 5.20831 12.0833V7.91663C5.20831 7.57496 4.92498 7.29163 4.58331 7.29163C4.24165 7.29163 3.95831 7.57496 3.95831 7.91663V12.0833C3.95831 12.425 4.24165 12.7083 4.58331 12.7083Z" fill="#040404"/>
</svg>
