<svg width="19" height="19" viewBox="0 0 19 19" fill="none" xmlns="http://www.w3.org/2000/svg">
<path d="M11.75 17.5625H7.25C3.1775 17.5625 1.4375 15.8225 1.4375 11.75V7.25C1.4375 3.1775 3.1775 1.4375 7.25 1.4375H11.75C15.8225 1.4375 17.5625 3.1775 17.5625 7.25V11.75C17.5625 15.8225 15.8225 17.5625 11.75 17.5625ZM7.25 2.5625C3.7925 2.5625 2.5625 3.7925 2.5625 7.25V11.75C2.5625 15.2075 3.7925 16.4375 7.25 16.4375H11.75C15.2075 16.4375 16.4375 15.2075 16.4375 11.75V7.25C16.4375 3.7925 15.2075 2.5625 11.75 2.5625H7.25Z" fill="white"/>
<path d="M7.11502 7.81249C6.47752 7.81249 5.84002 7.57249 5.35252 7.08499C5.13502 6.86749 5.13502 6.50749 5.35252 6.28999C5.57002 6.07249 5.93002 6.07249 6.14752 6.28999C6.68002 6.82249 7.55002 6.82249 8.08252 6.28999C8.30002 6.07249 8.66002 6.07249 8.87752 6.28999C9.09502 6.50749 9.09502 6.86749 8.87752 7.08499C8.39002 7.56499 7.75252 7.81249 7.11502 7.81249Z" fill="white"/>
<path d="M11.885 7.81249C11.2475 7.81249 10.61 7.57249 10.1225 7.08499C9.90498 6.86749 9.90498 6.50749 10.1225 6.28999C10.34 6.07249 10.7 6.07249 10.9175 6.28999C11.45 6.82249 12.32 6.82249 12.8525 6.28999C13.07 6.07249 13.43 6.07249 13.6475 6.28999C13.865 6.50749 13.865 6.86749 13.6475 7.08499C13.16 7.56499 12.5225 7.81249 11.885 7.81249Z" fill="white"/>
<path d="M9.5 14.8625C7.325 14.8625 5.5625 13.0925 5.5625 10.925C5.5625 10.2425 6.1175 9.6875 6.8 9.6875H12.2C12.8825 9.6875 13.4375 10.2425 13.4375 10.925C13.4375 13.0925 11.675 14.8625 9.5 14.8625ZM6.8 10.8125C6.74 10.8125 6.6875 10.865 6.6875 10.925C6.6875 12.4775 7.9475 13.7375 9.5 13.7375C11.0525 13.7375 12.3125 12.4775 12.3125 10.925C12.3125 10.865 12.26 10.8125 12.2 10.8125H6.8Z" fill="white"/>
</svg>
