<svg width="21" height="21" viewBox="0 0 21 21" fill="none" xmlns="http://www.w3.org/2000/svg">
<path d="M13 19.4583H7.99996C3.47496 19.4583 1.54163 17.525 1.54163 13V8C1.54163 3.475 3.47496 1.54167 7.99996 1.54167H13C17.525 1.54167 19.4583 3.475 19.4583 8V13C19.4583 17.525 17.525 19.4583 13 19.4583ZM7.99996 2.79167C4.15829 2.79167 2.79163 4.15833 2.79163 8V13C2.79163 16.8417 4.15829 18.2083 7.99996 18.2083H13C16.8416 18.2083 18.2083 16.8417 18.2083 13V8C18.2083 4.15833 16.8416 2.79167 13 2.79167H7.99996Z" fill="#373737"/>
<path d="M13.4166 9.25C12.3833 9.25 11.5416 8.40833 11.5416 7.375C11.5416 6.34167 12.3833 5.5 13.4166 5.5C14.45 5.5 15.2916 6.34167 15.2916 7.375C15.2916 8.40833 14.45 9.25 13.4166 9.25ZM13.4166 6.75C13.075 6.75 12.7916 7.03333 12.7916 7.375C12.7916 7.71667 13.075 8 13.4166 8C13.7583 8 14.0416 7.71667 14.0416 7.375C14.0416 7.03333 13.7583 6.75 13.4166 6.75Z" fill="#373737"/>
<path d="M7.58337 9.25C6.55004 9.25 5.70837 8.40833 5.70837 7.375C5.70837 6.34167 6.55004 5.5 7.58337 5.5C8.61671 5.5 9.45837 6.34167 9.45837 7.375C9.45837 8.40833 8.61671 9.25 7.58337 9.25ZM7.58337 6.75C7.24171 6.75 6.95837 7.03333 6.95837 7.375C6.95837 7.71667 7.24171 8 7.58337 8C7.92504 8 8.20837 7.71667 8.20837 7.375C8.20837 7.03333 7.92504 6.75 7.58337 6.75Z" fill="#373737"/>
<path d="M10.5 16.7083C8.08333 16.7083 6.125 14.7417 6.125 12.3333C6.125 11.575 6.74167 10.9583 7.5 10.9583H13.5C14.2583 10.9583 14.875 11.575 14.875 12.3333C14.875 14.7417 12.9167 16.7083 10.5 16.7083ZM7.5 12.2083C7.43333 12.2083 7.375 12.2667 7.375 12.3333C7.375 14.0583 8.775 15.4583 10.5 15.4583C12.225 15.4583 13.625 14.0583 13.625 12.3333C13.625 12.2667 13.5667 12.2083 13.5 12.2083H7.5Z" fill="#373737"/>
</svg>
