<svg width="19" height="19" viewBox="0 0 19 19" fill="none" xmlns="http://www.w3.org/2000/svg">
<path d="M11.75 17.5625H7.25C3.1775 17.5625 1.4375 15.8225 1.4375 11.75V7.25C1.4375 3.1775 3.1775 1.4375 7.25 1.4375H11.75C15.8225 1.4375 17.5625 3.1775 17.5625 7.25V11.75C17.5625 15.8225 15.8225 17.5625 11.75 17.5625ZM7.25 2.5625C3.7925 2.5625 2.5625 3.7925 2.5625 7.25V11.75C2.5625 15.2075 3.7925 16.4375 7.25 16.4375H11.75C15.2075 16.4375 16.4375 15.2075 16.4375 11.75V7.25C16.4375 3.7925 15.2075 2.5625 11.75 2.5625H7.25Z" fill="#2556DA"/>
<path d="M12.125 8.375C11.195 8.375 10.4375 7.6175 10.4375 6.6875C10.4375 5.7575 11.195 5 12.125 5C13.055 5 13.8125 5.7575 13.8125 6.6875C13.8125 7.6175 13.055 8.375 12.125 8.375ZM12.125 6.125C11.8175 6.125 11.5625 6.38 11.5625 6.6875C11.5625 6.995 11.8175 7.25 12.125 7.25C12.4325 7.25 12.6875 6.995 12.6875 6.6875C12.6875 6.38 12.4325 6.125 12.125 6.125Z" fill="#2556DA"/>
<path d="M6.875 8.375C5.945 8.375 5.1875 7.6175 5.1875 6.6875C5.1875 5.7575 5.945 5 6.875 5C7.805 5 8.5625 5.7575 8.5625 6.6875C8.5625 7.6175 7.805 8.375 6.875 8.375ZM6.875 6.125C6.5675 6.125 6.3125 6.38 6.3125 6.6875C6.3125 6.995 6.5675 7.25 6.875 7.25C7.1825 7.25 7.4375 6.995 7.4375 6.6875C7.4375 6.38 7.1825 6.125 6.875 6.125Z" fill="#2556DA"/>
<path d="M9.5 15.0875C7.325 15.0875 5.5625 13.3175 5.5625 11.15C5.5625 10.4675 6.1175 9.91251 6.8 9.91251H12.2C12.8825 9.91251 13.4375 10.4675 13.4375 11.15C13.4375 13.3175 11.675 15.0875 9.5 15.0875ZM6.8 11.0375C6.74 11.0375 6.6875 11.09 6.6875 11.15C6.6875 12.7025 7.9475 13.9625 9.5 13.9625C11.0525 13.9625 12.3125 12.7025 12.3125 11.15C12.3125 11.09 12.26 11.0375 12.2 11.0375H6.8Z" fill="#2556DA"/>
</svg>
