<svg width="20" height="20" viewBox="0 0 20 20" fill="none" xmlns="http://www.w3.org/2000/svg">
<path d="M12.0999 17.2416C12.5165 17.2416 12.8082 17.1 12.9832 16.9666C13.3165 16.725 13.8332 16.1 13.5082 14.7L13.0332 12.65C12.9915 12.475 13.0832 12.1583 13.2082 12.025L14.8665 10.3666C15.7415 9.49164 15.6665 8.7333 15.5499 8.3583C15.4332 7.9833 15.0499 7.32496 13.8332 7.11663L11.7082 6.76663C11.5499 6.74163 11.2915 6.54997 11.2249 6.4083L10.0499 4.0583C9.4832 2.92497 8.7332 2.7583 8.3332 2.7583C7.9332 2.7583 7.1832 2.92497 6.61654 4.0583L5.44153 6.4083C5.36653 6.54997 5.11654 6.74163 4.95821 6.76663L2.83319 7.11663C1.61653 7.31663 1.2332 7.9833 1.11653 8.3583C0.999864 8.7333 0.92487 9.49164 1.79987 10.3666L3.45819 12.025C3.58319 12.15 3.67485 12.475 3.63319 12.65L3.15821 14.7C2.83321 16.1083 3.34988 16.725 3.68321 16.9666C4.01654 17.2083 4.75819 17.5166 6.00819 16.775L7.99987 15.5916C8.16654 15.4916 8.51654 15.4916 8.68321 15.5916L10.6749 16.775C11.2499 17.125 11.7332 17.2416 12.0999 17.2416ZM8.3332 4.0083C8.46653 4.0083 8.7082 4.16663 8.9332 4.61663L10.1082 6.96664C10.3582 7.47497 10.9499 7.90831 11.5082 7.99997L13.6332 8.34997C14.1082 8.43331 14.3249 8.60831 14.3665 8.74164C14.4082 8.87497 14.3332 9.14164 13.9915 9.48331L12.3332 11.1416C11.9082 11.5666 11.6832 12.3416 11.8165 12.925L12.2915 14.975C12.4332 15.5666 12.3415 15.8833 12.2499 15.9583C12.1582 16.025 11.8249 16.0166 11.3082 15.7L9.30821 14.5166C8.74988 14.1833 7.90819 14.1833 7.35819 14.5166L5.36654 15.7C4.84154 16.0083 4.50819 16.025 4.41652 15.9583C4.32486 15.8916 4.2332 15.575 4.37487 14.975L4.84987 12.925C4.98321 12.3333 4.76654 11.5666 4.33321 11.1416L2.67486 9.48331C2.33319 9.14164 2.25821 8.86664 2.29987 8.74164C2.34154 8.61664 2.55821 8.43331 3.03321 8.34997L5.1582 7.99997C5.71654 7.90831 6.3082 7.47497 6.5582 6.96664L7.7332 4.61663C7.9582 4.16663 8.19987 4.0083 8.3332 4.0083Z" fill="white"/>
<path d="M13.3333 4.79163H18.3333C18.675 4.79163 18.9583 4.50829 18.9583 4.16663C18.9583 3.82496 18.675 3.54163 18.3333 3.54163H13.3333C12.9916 3.54163 12.7083 3.82496 12.7083 4.16663C12.7083 4.50829 12.9916 4.79163 13.3333 4.79163Z" fill="white"/>
<path d="M15.8333 16.4584H18.3333C18.675 16.4584 18.9583 16.175 18.9583 15.8334C18.9583 15.4917 18.675 15.2084 18.3333 15.2084H15.8333C15.4916 15.2084 15.2083 15.4917 15.2083 15.8334C15.2083 16.175 15.4916 16.4584 15.8333 16.4584Z" fill="white"/>
<path d="M17.5 10.625H18.3333C18.675 10.625 18.9583 10.3417 18.9583 10C18.9583 9.65833 18.675 9.375 18.3333 9.375H17.5C17.1583 9.375 16.875 9.65833 16.875 10C16.875 10.3417 17.1583 10.625 17.5 10.625Z" fill="white"/>
</svg>
