<svg width="21" height="21" viewBox="0 0 21 21" fill="none" xmlns="http://www.w3.org/2000/svg">
<path d="M9.49163 13.1417C9.32497 13.1417 9.16663 13.075 9.04997 12.9584L7.0333 10.9417C6.79163 10.7 6.79163 10.3 7.0333 10.0584C7.27497 9.81669 7.67497 9.81669 7.91663 10.0584L9.49163 11.6334L13.075 8.05002C13.3166 7.80836 13.7166 7.80836 13.9583 8.05002C14.2 8.29169 14.2 8.69169 13.9583 8.93336L9.9333 12.9584C9.81663 13.075 9.6583 13.1417 9.49163 13.1417Z" fill="#2556DA"/>
<path d="M10.4999 19.4583C9.97494 19.4583 9.44994 19.2833 9.04161 18.9333L7.72494 17.8C7.59161 17.6833 7.25828 17.5666 7.08328 17.5666H5.64994C4.41661 17.5666 3.41661 16.5666 3.41661 15.3333V13.9083C3.41661 13.7333 3.29994 13.4083 3.18328 13.275L2.05828 11.95C1.37494 11.1416 1.37494 9.86663 2.05828 9.05829L3.18328 7.73329C3.29994 7.59996 3.41661 7.27496 3.41661 7.09996V5.66663C3.41661 4.43329 4.41661 3.43329 5.64994 3.43329H7.09161C7.26661 3.43329 7.59994 3.30829 7.73328 3.19996L9.04994 2.06663C9.86661 1.36663 11.1416 1.36663 11.9583 2.06663L13.2749 3.19996C13.4083 3.31663 13.7416 3.43329 13.9166 3.43329H15.3333C16.5666 3.43329 17.5666 4.43329 17.5666 5.66663V7.08329C17.5666 7.25829 17.6916 7.59163 17.8083 7.72496L18.9416 9.04163C19.6416 9.85829 19.6416 11.1333 18.9416 11.95L17.8083 13.2666C17.6916 13.4 17.5666 13.7333 17.5666 13.9083V15.325C17.5666 16.5583 16.5666 17.5583 15.3333 17.5583H13.9166C13.7416 17.5583 13.4083 17.6833 13.2749 17.7916L11.9583 18.925C11.5499 19.2833 11.0249 19.4583 10.4999 19.4583ZM5.64994 4.68329C5.10828 4.68329 4.66661 5.12496 4.66661 5.66663V7.09163C4.66661 7.56663 4.44161 8.17496 4.13328 8.53329L3.00828 9.85829C2.71661 10.2 2.71661 10.7916 3.00828 11.1333L4.13328 12.4583C4.44161 12.825 4.66661 13.425 4.66661 13.9V15.325C4.66661 15.8666 5.10828 16.3083 5.64994 16.3083H7.09161C7.57494 16.3083 8.18328 16.5333 8.54994 16.85L9.86661 17.9833C10.2083 18.275 10.8083 18.275 11.1499 17.9833L12.4666 16.85C12.8333 16.5416 13.4416 16.3083 13.9249 16.3083H15.3416C15.8833 16.3083 16.3249 15.8666 16.3249 15.325V13.9083C16.3249 13.425 16.5499 12.8166 16.8666 12.45L17.9999 11.1333C18.2916 10.7916 18.2916 10.1916 17.9999 9.84996L16.8666 8.53329C16.5499 8.16663 16.3249 7.55829 16.3249 7.07496V5.66663C16.3249 5.12496 15.8833 4.68329 15.3416 4.68329H13.9249C13.4416 4.68329 12.8333 4.45829 12.4666 4.14163L11.1499 3.00829C10.8083 2.71663 10.2083 2.71663 9.86661 3.00829L8.54994 4.14996C8.18328 4.45829 7.56661 4.68329 7.09161 4.68329H5.64994Z" fill="#2556DA"/>
</svg>
