<svg width="21" height="21" viewBox="0 0 21 21" fill="none" xmlns="http://www.w3.org/2000/svg">
<path d="M15.1834 8.51666H10.8083C10.4667 8.51666 10.1833 8.23333 10.1833 7.89166C10.1833 7.55 10.4667 7.26666 10.8083 7.26666H15.1834C15.525 7.26666 15.8084 7.55 15.8084 7.89166C15.8084 8.23333 15.5334 8.51666 15.1834 8.51666Z" fill="#373737"/>
<path d="M6.43334 9.15C6.27501 9.15 6.11667 9.09167 5.99167 8.96667L5.36667 8.34167C5.12501 8.1 5.12501 7.7 5.36667 7.45833C5.60834 7.21667 6.00834 7.21667 6.25001 7.45833L6.43334 7.64167L7.86667 6.20833C8.10834 5.96667 8.50834 5.96667 8.75001 6.20833C8.99167 6.45 8.99167 6.85 8.75001 7.09167L6.87501 8.96667C6.75834 9.08333 6.60001 9.15 6.43334 9.15Z" fill="#373737"/>
<path d="M15.1834 14.35H10.8083C10.4667 14.35 10.1833 14.0667 10.1833 13.725C10.1833 13.3833 10.4667 13.1 10.8083 13.1H15.1834C15.525 13.1 15.8084 13.3833 15.8084 13.725C15.8084 14.0667 15.5334 14.35 15.1834 14.35Z" fill="#373737"/>
<path d="M6.43334 14.9833C6.27501 14.9833 6.11667 14.925 5.99167 14.8L5.36667 14.175C5.12501 13.9333 5.12501 13.5333 5.36667 13.2917C5.60834 13.05 6.00834 13.05 6.25001 13.2917L6.43334 13.475L7.86667 12.0417C8.10834 11.8 8.50834 11.8 8.75001 12.0417C8.99167 12.2833 8.99167 12.6833 8.75001 12.925L6.87501 14.8C6.75834 14.9167 6.60001 14.9833 6.43334 14.9833Z" fill="#373737"/>
<path d="M13 19.4583H8.00002C3.47502 19.4583 1.54169 17.525 1.54169 13V8C1.54169 3.475 3.47502 1.54167 8.00002 1.54167H13C17.525 1.54167 19.4584 3.475 19.4584 8V13C19.4584 17.525 17.525 19.4583 13 19.4583ZM8.00002 2.79167C4.15835 2.79167 2.79169 4.15833 2.79169 8V13C2.79169 16.8417 4.15835 18.2083 8.00002 18.2083H13C16.8417 18.2083 18.2084 16.8417 18.2084 13V8C18.2084 4.15833 16.8417 2.79167 13 2.79167H8.00002Z" fill="#373737"/>
</svg>
